<svg width="33" height="33" viewBox="0 0 33 33" fill="none" xmlns="http://www.w3.org/2000/svg">
<path d="M20.3539 1.28467H16.4998V3.69341H19.1494V8.22988C19.1494 12.2144 15.9076 15.4562 11.9231 15.4562C7.93863 15.4562 4.6969 12.2144 4.6969 8.22994V3.69341H7.26626V1.28467H3.49253C2.82731 1.28467 2.28815 1.82382 2.28815 2.48904V8.22994C2.28815 13.5429 6.61025 17.865 11.9232 17.865C17.2361 17.865 21.5582 13.5429 21.5582 8.22994V2.48904C21.5582 1.82382 21.0191 1.28467 20.3539 1.28467Z" fill="white"/>
<path d="M25.0509 18.8686V24.5693C25.0509 27.8898 22.3494 30.5913 19.0289 30.5913C15.7084 30.5913 13.007 27.8898 13.007 24.5693V16.7007H10.5983V24.5693C10.5983 29.2178 14.38 33 19.0289 33C23.6774 33 27.4596 29.2178 27.4596 24.5693V18.8686H25.0509Z" fill="white"/>
<path d="M26.2557 11.0803C23.798 11.0803 21.7991 13.0791 21.7991 15.5365C21.7991 17.9934 23.798 19.9927 26.2553 19.9927C28.7126 19.9927 30.7115 17.9934 30.7119 15.5365C30.7119 13.0791 28.7126 11.0803 26.2557 11.0803ZM26.2553 17.584C25.126 17.584 24.2074 16.6654 24.2074 15.5366C24.2074 14.4077 25.126 13.4891 26.2553 13.4891C27.3842 13.4891 28.3027 14.4077 28.3027 15.5366C28.3027 16.6654 27.3842 17.584 26.2553 17.584Z" fill="white"/>
<path d="M7.2261 0C6.56088 0 6.02173 0.53915 6.02173 1.20437V3.77373C6.02173 4.43895 6.56088 4.9781 7.2261 4.9781C7.89132 4.9781 8.43047 4.43895 8.43047 3.77373V1.20437C8.43047 0.53915 7.89132 0 7.2261 0Z" fill="white"/>
<path d="M16.54 0C15.8747 0 15.3356 0.53915 15.3356 1.20437V3.77373C15.3356 4.43895 15.8747 4.9781 16.54 4.9781C17.2052 4.9781 17.7443 4.43895 17.7443 3.77373V1.20437C17.7443 0.53915 17.2052 0 16.54 0Z" fill="white"/>
</svg>
