<svg width="30" height="30" viewBox="0 0 30 30" fill="none" xmlns="http://www.w3.org/2000/svg">
<g clip-path="url(#clip0)">
<path d="M7.36501 7.38246C7.04157 7.38246 6.77907 7.64496 6.77907 7.9684C6.77907 8.29184 7.04157 8.55434 7.36501 8.55434C7.68844 8.55434 7.95094 8.29184 7.95094 7.9684C7.95094 7.64496 7.68844 7.38246 7.36501 7.38246Z" fill="white"/>
<path d="M12.6381 18.3389H10.8805V16.5812C10.8805 16.2577 10.6181 15.9953 10.2945 15.9953C9.97096 15.9953 9.70864 16.2577 9.70864 16.5812V18.3389H7.95094C7.62739 18.3389 7.36501 18.6013 7.36501 18.9248C7.36501 19.2483 7.62739 19.5107 7.95094 19.5107H9.70864V21.2684C9.70864 21.592 9.97102 21.8544 10.2945 21.8544C10.618 21.8544 10.8805 21.592 10.8805 21.2684V19.5107H12.6381C12.9617 19.5107 13.2241 19.2483 13.2241 18.9248C13.2241 18.6012 12.9618 18.3389 12.6381 18.3389Z" fill="white"/>
<path d="M28.4518 18.8663C27.1566 16.6229 24.2928 15.8552 22.0491 17.1507L19.6691 18.5247V13.4367C19.6691 12.8077 19.4611 12.1835 19.0832 11.679L16.1537 7.77305V6.1098C16.8356 5.86793 17.3255 5.21672 17.3255 4.45283V1.7577C17.3254 0.788496 16.5369 0 15.5677 0H5.02137C4.05217 0 3.26362 0.788496 3.26362 1.7577V4.45289C3.26362 5.21666 3.75352 5.86799 4.43543 6.10986V7.77311L1.50569 11.6793C1.12799 12.1835 0.919983 12.8077 0.919983 13.4367V24.7839C0.919983 26.3993 2.23418 27.7134 3.84949 27.7134H13.2656C14.5794 29.9156 17.4121 30.6526 19.6327 29.3704L26.7363 25.269C28.9603 23.9848 29.7536 21.1218 28.4518 18.8663ZM4.43543 1.7577C4.43543 1.43461 4.69828 1.17176 5.02131 1.17176H15.5677C15.8907 1.17176 16.1536 1.43461 16.1536 1.7577V4.45289C16.1536 4.77598 15.8907 5.03877 15.5677 5.03877H5.02137C4.69828 5.03877 4.43549 4.77592 4.43549 4.45289V1.7577H4.43543ZM2.44342 12.382L5.49006 8.3199C5.56612 8.21853 5.60725 8.09514 5.60725 7.96834V6.21064H14.9818V7.38246H9.70864C9.38508 7.38246 9.1227 7.64484 9.1227 7.9684C9.1227 8.29195 9.38508 8.55434 9.70864 8.55434H15.2747L18.1454 12.3818C18.333 12.6323 18.4496 12.932 18.4848 13.2416H2.10428C2.13944 12.9319 2.25598 12.6322 2.44342 12.382ZM3.84955 26.5416C2.88035 26.5416 2.09186 25.7531 2.09186 24.7839V24.1922H12.7369C12.5511 24.9519 12.5523 25.7633 12.7651 26.5417H3.84955V26.5416ZM13.1964 23.0262H2.0918V14.4133H18.4972V19.2012L14.9453 21.2521C14.2048 21.6799 13.6062 22.2888 13.1964 23.0262ZM19.0468 28.3556C17.3654 29.3265 15.2167 28.7523 14.2451 27.0697C13.2689 25.3708 13.8605 23.2319 15.5314 22.2668L18.7117 20.4306L22.2271 26.5194L19.0468 28.3556ZM26.1504 24.2542L23.242 25.9335L19.7265 19.8446L22.6349 18.1655C24.3175 17.1942 26.4654 17.7694 27.437 19.4521C28.4129 21.1432 27.8194 23.2904 26.1504 24.2542Z" fill="white"/>
</g>
<defs>
<clipPath id="clip0">
<rect width="30" height="30" fill="white"/>
</clipPath>
</defs>
</svg>
