<svg width="27" height="27" viewBox="0 0 27 27" fill="none" xmlns="http://www.w3.org/2000/svg">
<g clip-path="url(#clip0)">
<path d="M26.6701 25.0803L18.992 17.4023C20.4793 15.5652 21.3748 13.2308 21.3748 10.6884C21.3748 4.79569 16.5801 0.000968933 10.6874 0.000968933C4.79467 0.000968933 0 4.79564 0 10.6883C0 16.581 4.79472 21.3757 10.6874 21.3757C13.2299 21.3757 15.5642 20.4803 17.4013 18.993L25.0794 26.6711C25.2988 26.8904 25.5867 27.0007 25.8748 27.0007C26.1628 27.0007 26.4508 26.8904 26.6702 26.6711C27.11 26.2312 27.11 25.5202 26.6701 25.0803ZM10.6874 19.1257C6.03444 19.1257 2.25 15.3413 2.25 10.6883C2.25 6.03536 6.03444 2.25091 10.6874 2.25091C15.3404 2.25091 19.1248 6.03536 19.1248 10.6883C19.1248 15.3413 15.3403 19.1257 10.6874 19.1257Z" fill="#0E3360"/>
</g>
<defs>
<clipPath id="clip0">
<rect width="27" height="27" fill="white"/>
</clipPath>
</defs>
</svg>
