<svg id="Capa_1" enable-background="new 0 0 512 512" height="512" viewBox="0 0 512 512" width="512" xmlns="http://www.w3.org/2000/svg"><g><path d="m512 256c0 108.16-67.09 200.66-161.92 238.14-8.33 3.3-16.88-17.171-25.62-14.752-5.36 1.49-10.8 26.151-16.3 27.281-3.68.76-7.4 1.45-11.14 2.05-9.03 1.46-242.59-98.832-292.398-204.048-3.034-15.757-4.622-32.029-4.622-48.671 0-141.38 114.62-256 256-256s256 114.62 256 256z" fill="#3342aa"/><g><path d="m392.182 196.064c-3.49 0-6.318-2.829-6.318-6.318v-105.749c0-3.489 2.829-6.318 6.318-6.318 3.489 0 6.318 2.829 6.318 6.318v105.748c0 3.49-2.829 6.319-6.318 6.319z" fill="#78c2a4"/><circle cx="392.182" cy="77.679" fill="#b3e59f" r="11.639"/><path d="m396.173 88.609c-1.24.46-2.58.71-3.99.71-6.43 0-11.64-5.21-11.64-11.64s5.21-11.64 11.64-11.64c1.41 0 2.75.25 3.99.71-4.47 1.62-7.65 5.9-7.65 10.93s3.18 9.31 7.65 10.93z" fill="#78c2a4"/><circle cx="392.182" cy="196.064" fill="#b3e59f" r="11.639"/><path d="m396.173 206.994c-1.24.46-2.58.71-3.99.71-6.43 0-11.64-5.21-11.64-11.64s5.21-11.64 11.64-11.64c1.41 0 2.75.25 3.99.71-4.47 1.62-7.65 5.9-7.65 10.93s3.18 9.309 7.65 10.93z" fill="#78c2a4"/><path d="m350.326 178.727c-2.467-2.467-2.467-6.468 0-8.935l74.775-74.775c2.467-2.467 6.468-2.467 8.935 0 2.467 2.467 2.467 6.468 0 8.935l-74.775 74.775c-2.467 2.467-6.467 2.467-8.935 0z" fill="#78c2a4"/><circle cx="434.037" cy="95.016" fill="#b3e59f" r="11.639"/><path d="m438.028 105.946c-1.24.46-2.58.71-3.99.71-6.43 0-11.64-5.21-11.64-11.64s5.21-11.64 11.64-11.64c1.41 0 2.75.25 3.99.71-4.47 1.62-7.65 5.9-7.65 10.93s3.18 9.31 7.65 10.93z" fill="#78c2a4"/><circle cx="350.326" cy="178.727" fill="#b3e59f" r="11.639"/><path d="m354.318 189.657c-1.24.46-2.58.71-3.99.71-6.43 0-11.64-5.21-11.64-11.64s5.21-11.64 11.64-11.64c1.41 0 2.75.25 3.99.71-4.47 1.62-7.65 5.9-7.65 10.93s3.179 9.309 7.65 10.93z" fill="#78c2a4"/><path d="m332.989 136.871c0-3.49 2.829-6.318 6.318-6.318h105.748c3.489 0 6.318 2.829 6.318 6.318 0 3.489-2.829 6.318-6.318 6.318h-105.747c-3.49 0-6.319-2.828-6.319-6.318z" fill="#78c2a4"/><circle cx="451.374" cy="136.871" fill="#b3e59f" r="11.639"/><path d="m455.365 147.801c-1.24.46-2.58.71-3.99.71-6.43 0-11.64-5.21-11.64-11.64s5.21-11.64 11.64-11.64c1.41 0 2.75.25 3.99.71-4.47 1.62-7.65 5.9-7.65 10.93s3.18 9.31 7.65 10.93z" fill="#78c2a4"/><circle cx="332.989" cy="136.871" fill="#b3e59f" r="11.639"/><path d="m336.981 147.801c-1.24.46-2.58.71-3.99.71-6.43 0-11.64-5.21-11.64-11.64s5.21-11.64 11.64-11.64c1.41 0 2.75.25 3.99.71-4.47 1.62-7.65 5.9-7.65 10.93s3.179 9.31 7.65 10.93z" fill="#78c2a4"/><path d="m350.326 95.016c2.467-2.467 6.468-2.467 8.935 0l74.775 74.775c2.467 2.467 2.467 6.468 0 8.935-2.467 2.467-6.468 2.467-8.935 0l-74.775-74.775c-2.467-2.467-2.467-6.468 0-8.935z" fill="#78c2a4"/><circle cx="434.037" cy="178.727" fill="#b3e59f" r="11.639"/><path d="m438.028 189.657c-1.24.46-2.58.71-3.99.71-6.43 0-11.64-5.21-11.64-11.64s5.21-11.64 11.64-11.64c1.41 0 2.75.25 3.99.71-4.47 1.62-7.65 5.9-7.65 10.93s3.18 9.309 7.65 10.93z" fill="#78c2a4"/><circle cx="350.326" cy="95.016" fill="#b3e59f" r="11.639"/><path d="m354.318 105.946c-1.24.46-2.58.71-3.99.71-6.43 0-11.64-5.21-11.64-11.64s5.21-11.64 11.64-11.64c1.41 0 2.75.25 3.99.71-4.47 1.62-7.65 5.9-7.65 10.93s3.179 9.31 7.65 10.93z" fill="#78c2a4"/><circle cx="392.182" cy="136.871" fill="#b3e59f" r="41.235"/><path d="m403.377 176.561c-3.56 1.01-7.32 1.55-11.2 1.55-22.77 0-41.23-18.47-41.23-41.24s18.46-41.23 41.23-41.23c3.88 0 7.64.54 11.2 1.54-17.34 4.88-30.04 20.8-30.04 39.69s12.699 34.82 30.04 39.69z" fill="#78c2a4"/></g><g><circle cx="329.836" cy="149.616" fill="#f9f6f9" r="34.667"/><circle cx="325.192" cy="149.616" fill="#453d81" r="20.221"/><path d="m237.389 50.243c-20.937 0-37.91 16.973-37.91 37.91v45.891h75.819v-45.891c.001-20.937-16.972-37.91-37.909-37.91z" fill="#ac80dd"/><path d="m248.7 51.953c-15.42 4.82-26.61 19.21-26.61 36.2v45.89h-22.61v-45.89c0-20.93 16.97-37.91 37.91-37.91 3.94 0 7.73.6 11.31 1.71z" fill="#9d66d5"/><g><path d="m310.314 165.988-8.354-159.122c-.399-7.595-10.742-9.515-13.839-2.568l-64.895 145.528z" fill="#b1e4f9"/><g fill="#90d8f9"><path d="m296.05.128c-.812-.151-1.962 1.517-2.869 5.11l-38.043 150.511-31.912-5.923 64.888-145.529c1.551-3.473 4.919-4.729 7.936-4.169z"/><path d="m230.655 138.815c-3.965-.736-7.227-3.882-7.913-8.091-.873-5.361 2.765-10.415 8.126-11.289l75.286-12.269c5.363-.874 10.415 2.765 11.289 8.126s-2.765 10.415-8.126 11.289l-75.286 12.269c-1.152.187-2.29.166-3.376-.035z"/><path d="m252.849 89.065c-3.964-.736-7.226-3.882-7.912-8.09-.874-5.361 2.763-10.416 8.124-11.29l50.684-8.266c5.36-.874 10.415 2.763 11.29 8.124.874 5.361-2.763 10.416-8.124 11.29l-50.684 8.266c-1.153.188-2.292.167-3.378-.034z"/><path d="m275.034 39.312c-3.965-.736-7.227-3.883-7.913-8.092-.873-5.361 2.765-10.415 8.126-11.288l26.104-4.252c5.36-.875 10.415 2.765 11.288 8.126s-2.765 10.415-8.126 11.288l-26.104 4.252c-1.152.188-2.29.167-3.375-.034z"/></g></g><path d="m167.134 57.892c29.306 0 53.064 23.758 53.064 53.064s-23.758 53.064-53.064 53.064z" fill="#ffceec"/><path d="m266.48 184.59h-51.03c.14 1.88.24 3.78.24 5.69 0 37.45-28.15 68.3-64.44 72.59 1.04 4.91 1.59 9.99 1.59 15.21 0 32.48-21.2 60.01-50.51 69.53 6.13 11.76 9.61 25.12 9.61 39.29 0 23.83 17.652 18.248 1.882 33.698-8.64-7.64-15.878-5.7-23.408-14.43-5.13-5.95-38.314 4.832-42.894-1.578-20.93-29.31-35.83-63.22-42.89-99.92 2.1-.58 4.24-1.07 6.41-1.47-2.87-7.83-4.43-16.3-4.43-25.12 0-37.45 28.15-68.3 64.44-72.59-1.04-4.91-1.59-9.99-1.59-15.21 0-40.38 32.73-73.11 73.11-73.11h92.08c17.58 0 31.83 14.25 31.83 31.82z" fill="#ac80dd"/><path d="m120.33 190.28c0 5.22.56 10.3 1.6 15.21-36.29 4.29-64.45 35.14-64.45 72.59 0 8.82 1.57 17.29 4.44 25.12-20.08 3.75-37.68 14.54-50.14 29.72-2.91-9.2-5.3-18.63-7.15-28.25 2.1-.58 4.24-1.07 6.41-1.47-2.87-7.83-4.43-16.3-4.43-25.12 0-37.45 28.15-68.3 64.44-72.59-1.04-4.91-1.59-9.99-1.59-15.21 0-40.38 32.73-73.11 73.11-73.11h50.88c-40.38 0-73.12 32.73-73.12 73.11z" fill="#9d66d5"/><path d="m497.292 249.098c0 7.62-6.18 13.8-13.8 13.8h-4.97v15.96c0 8.08-3.28 15.39-8.57 20.69s-12.61 8.57-20.68 8.57c-15.52 0-28.21-12.09-29.19-27.36l-65.13 7.61c-6.82 17.12-18.59 31.72-33.54 42.05s-33.09 16.38-52.64 16.38c-51.21 0-92.73-41.52-92.73-92.73v-100.46h269.92c17.98 0 32.56 14.58 32.56 32.56v49.13h4.97c7.62 0 13.8 6.18 13.8 13.8z" fill="#ffddf1"/><path d="m282.97 304.03v206.56c-8.86.93-17.86 1.41-26.97 1.41-77.51 0-146.97-34.45-193.91-88.87l113.96-269.52z" fill="#ffddf1"/><path d="m197.67 294.87-84.84 173.38c-18.85-12.75-35.92-27.94-50.74-45.12-5.13-5.95-9.99-12.13-14.57-18.54l128.53-250.98 18.48 26z" fill="#ffceec"/><path d="m430.578 203.283c-6.097 0-11.039-4.942-11.039-11.039 0-6.097 4.942-11.039 11.039-11.039 6.097 0 11.039 4.942 11.039 11.039 0 6.097-4.942 11.039-11.039 11.039z" fill="#eaaadd"/><path d="m462.52 203.283c-6.097 0-11.039-4.942-11.039-11.039 0-6.097 4.942-11.039 11.039-11.039 6.097 0 11.039 4.942 11.039 11.039 0 6.097-4.943 11.039-11.039 11.039z" fill="#eaaadd"/><path d="m281.882 345.876c-4.28.61-8.66.92-13.11.92-51.21 0-92.73-41.52-92.73-92.73v-100.46h26.16v100.46c0 46.78 34.65 85.47 79.68 91.81z" fill="#ffceec"/><g><circle cx="250.358" cy="149.616" fill="#f9f6f9" r="45.45"/><circle cx="256.537" cy="149.616" fill="#453d81" r="26.511"/></g><path d="m64.468 153.606c0 33.687 27.309 60.996 60.996 60.996s60.996-27.309 60.996-60.996z" fill="#ffceec"/><path d="m458.47 251.27v18.62c0 5.57-3.27 10.38-7.98 12.61-1.82.87-3.85-3.079-5.99-3.079-7.71 0-10.863-1.82-10.863-9.53l-3.107-4.64v-13.98c0-7.72 6.26-13.97 13.97-13.97 3.86 0 7.35 1.56 9.88 4.09 2.52 2.529 4.09 6.019 4.09 9.879z" fill="#453d81"/><path d="m450.49 277.87v4.63c-1.82.87-3.85 1.35-5.99 1.35-7.71 0-13.97-6.25-13.97-13.96v-4.64c1.82-.87 3.85-1.35 5.99-1.35 3.86 0 7.35 1.56 9.88 4.09 2.52 2.53 4.09 6.03 4.09 9.88z" fill="#da387d"/></g><g><path d="m380.486 438.167c-3.186 0-5.77-2.583-5.77-5.77v-96.563c0-3.186 2.583-5.77 5.77-5.77 3.186 0 5.77 2.583 5.77 5.77v96.563c0 3.187-2.583 5.77-5.77 5.77z" fill="#78c2a4"/><circle cx="380.486" cy="330.064" fill="#b3e59f" r="10.628"/><path d="m384.131 340.045c-1.132.42-2.356.648-3.643.648-5.872 0-10.629-4.757-10.629-10.629s4.757-10.629 10.629-10.629c1.287 0 2.511.228 3.643.649-4.082 1.479-6.986 5.387-6.986 9.981s2.904 8.5 6.986 9.98z" fill="#78c2a4"/><circle cx="380.486" cy="438.167" fill="#b3e59f" r="10.628"/><path d="m384.131 448.147c-1.132.42-2.356.648-3.643.648-5.872 0-10.629-4.757-10.629-10.629s4.757-10.629 10.629-10.629c1.287 0 2.511.228 3.643.649-4.082 1.479-6.986 5.387-6.986 9.981 0 4.593 2.904 8.501 6.986 9.98z" fill="#78c2a4"/><path d="m342.266 422.335c-2.253-2.253-2.253-5.906 0-8.159l68.281-68.281c2.253-2.253 5.906-2.253 8.159 0 2.253 2.253 2.253 5.906 0 8.159l-68.281 68.281c-2.253 2.254-5.906 2.254-8.159 0z" fill="#78c2a4"/><circle cx="418.706" cy="345.896" fill="#b3e59f" r="10.628"/><path d="m422.351 355.876c-1.132.42-2.356.648-3.643.648-5.872 0-10.629-4.757-10.629-10.629s4.757-10.629 10.629-10.629c1.287 0 2.511.228 3.643.649-4.082 1.479-6.986 5.387-6.986 9.981 0 4.593 2.904 8.501 6.986 9.98z" fill="#78c2a4"/><circle cx="342.266" cy="422.335" fill="#b3e59f" r="10.628"/><path d="m345.911 432.316c-1.132.42-2.356.648-3.643.648-5.872 0-10.629-4.757-10.629-10.629s4.757-10.629 10.629-10.629c1.287 0 2.511.228 3.643.648-4.082 1.479-6.986 5.387-6.986 9.981s2.904 8.502 6.986 9.981z" fill="#78c2a4"/><path d="m326.435 384.115c0-3.186 2.583-5.77 5.77-5.77h96.563c3.186 0 5.77 2.583 5.77 5.77 0 3.186-2.583 5.77-5.77 5.77h-96.563c-3.187 0-5.77-2.583-5.77-5.77z" fill="#78c2a4"/><circle cx="434.537" cy="384.115" fill="#b3e59f" r="10.628"/><path d="m438.182 394.096c-1.132.42-2.356.648-3.643.648-5.872 0-10.629-4.757-10.629-10.629 0-5.871 4.757-10.629 10.629-10.629 1.287 0 2.511.228 3.643.649-4.082 1.479-6.986 5.387-6.986 9.981 0 4.593 2.904 8.501 6.986 9.98z" fill="#78c2a4"/><circle cx="326.435" cy="384.115" fill="#b3e59f" r="10.628"/><path d="m330.08 394.096c-1.132.42-2.356.648-3.643.648-5.872 0-10.629-4.757-10.629-10.629 0-5.871 4.757-10.629 10.629-10.629 1.287 0 2.511.228 3.643.649-4.082 1.479-6.986 5.387-6.986 9.981 0 4.593 2.904 8.501 6.986 9.98z" fill="#78c2a4"/><path d="m342.266 345.895c2.253-2.253 5.906-2.253 8.159 0l68.281 68.281c2.253 2.253 2.253 5.906 0 8.159-2.253 2.253-5.906 2.253-8.159 0l-68.281-68.281c-2.253-2.253-2.253-5.906 0-8.159z" fill="#78c2a4"/><circle cx="418.706" cy="422.335" fill="#b3e59f" r="10.628"/><path d="m422.351 432.316c-1.132.42-2.356.648-3.643.648-5.872 0-10.629-4.757-10.629-10.629s4.757-10.629 10.629-10.629c1.287 0 2.511.228 3.643.648-4.082 1.479-6.986 5.387-6.986 9.981s2.904 8.502 6.986 9.981z" fill="#78c2a4"/><circle cx="342.266" cy="345.896" fill="#b3e59f" r="10.628"/><path d="m345.911 355.876c-1.132.42-2.356.648-3.643.648-5.872 0-10.629-4.757-10.629-10.629s4.757-10.629 10.629-10.629c1.287 0 2.511.228 3.643.649-4.082 1.479-6.986 5.387-6.986 9.981 0 4.593 2.904 8.501 6.986 9.98z" fill="#78c2a4"/><circle cx="380.486" cy="384.115" fill="#b3e59f" r="37.654"/><path d="m390.709 420.358c-3.251.922-6.684 1.415-10.227 1.415-20.792 0-37.649-16.866-37.649-37.658s16.857-37.649 37.649-37.649c3.543 0 6.977.493 10.227 1.406-15.834 4.456-27.431 18.993-27.431 36.243s11.597 31.796 27.431 36.243z" fill="#78c2a4"/></g><g><path d="m94.956 160.557c-3.766 0-6.819-3.053-6.819-6.819v-114.122c0-3.766 3.053-6.819 6.819-6.819 3.766 0 6.819 3.053 6.819 6.819v114.123c0 3.766-3.053 6.818-6.819 6.818z" fill="#78c2a4"/><circle cx="94.956" cy="32.797" fill="#b3e59f" r="12.561"/><path d="m99.263 44.593c-1.338.496-2.784.766-4.306.766-6.939 0-12.562-5.623-12.562-12.562s5.623-12.562 12.562-12.562c1.522 0 2.968.27 4.306.766-4.824 1.748-8.256 6.367-8.256 11.796s3.432 10.047 8.256 11.796z" fill="#78c2a4"/><circle cx="94.956" cy="160.557" fill="#b3e59f" r="12.561"/><path d="m99.263 172.353c-1.338.496-2.784.766-4.306.766-6.939 0-12.562-5.623-12.562-12.562s5.623-12.562 12.562-12.562c1.522 0 2.968.27 4.306.766-4.824 1.748-8.256 6.367-8.256 11.796s3.432 10.048 8.256 11.796z" fill="#78c2a4"/><path d="m49.786 141.847c-2.663-2.663-2.663-6.98 0-9.643l80.697-80.697c2.663-2.663 6.98-2.663 9.643 0 2.663 2.663 2.663 6.98 0 9.643l-80.697 80.697c-2.663 2.663-6.98 2.663-9.643 0z" fill="#78c2a4"/><circle cx="140.126" cy="51.507" fill="#b3e59f" r="12.561"/><path d="m144.433 63.303c-1.338.496-2.784.766-4.306.766-6.939 0-12.562-5.623-12.562-12.562s5.623-12.562 12.562-12.562c1.522 0 2.968.27 4.306.766-4.824 1.748-8.256 6.367-8.256 11.796s3.432 10.047 8.256 11.796z" fill="#78c2a4"/><circle cx="49.786" cy="141.847" fill="#b3e59f" r="12.561"/><path d="m54.093 153.643c-1.338.496-2.784.766-4.306.766-6.939 0-12.562-5.623-12.562-12.562s5.623-12.562 12.562-12.562c1.522 0 2.968.27 4.306.766-4.824 1.748-8.256 6.367-8.256 11.796s3.432 10.048 8.256 11.796z" fill="#78c2a4"/><path d="m31.076 96.677c0-3.766 3.053-6.819 6.819-6.819h114.123c3.766 0 6.819 3.053 6.819 6.819 0 3.766-3.053 6.819-6.819 6.819h-114.124c-3.765 0-6.818-3.053-6.818-6.819z" fill="#78c2a4"/><circle cx="158.836" cy="96.677" fill="#b3e59f" r="12.561"/><path d="m163.143 108.473c-1.338.496-2.784.766-4.306.766-6.939 0-12.562-5.623-12.562-12.562s5.623-12.562 12.562-12.562c1.522 0 2.968.27 4.306.766-4.824 1.748-8.256 6.367-8.256 11.796s3.432 10.047 8.256 11.796z" fill="#78c2a4"/><circle cx="31.076" cy="96.677" fill="#b3e59f" r="12.561"/><path d="m35.383 108.473c-1.338.496-2.784.766-4.306.766-6.939 0-12.562-5.623-12.562-12.562s5.623-12.562 12.562-12.562c1.522 0 2.968.27 4.306.766-4.824 1.748-8.256 6.367-8.256 11.796s3.432 10.047 8.256 11.796z" fill="#78c2a4"/><path d="m49.786 51.507c2.663-2.663 6.98-2.663 9.643 0l80.697 80.697c2.663 2.663 2.663 6.98 0 9.643-2.663 2.663-6.98 2.663-9.643 0l-80.697-80.697c-2.663-2.663-2.663-6.98 0-9.643z" fill="#78c2a4"/><circle cx="140.126" cy="141.847" fill="#b3e59f" r="12.561"/><path d="m144.433 153.643c-1.338.496-2.784.766-4.306.766-6.939 0-12.562-5.623-12.562-12.562s5.623-12.562 12.562-12.562c1.522 0 2.968.27 4.306.766-4.824 1.748-8.256 6.367-8.256 11.796s3.432 10.048 8.256 11.796z" fill="#78c2a4"/><circle cx="49.786" cy="51.507" fill="#b3e59f" r="12.561"/><path d="m54.093 63.303c-1.338.496-2.784.766-4.306.766-6.939 0-12.562-5.623-12.562-12.562s5.623-12.562 12.562-12.562c1.522 0 2.968.27 4.306.766-4.824 1.748-8.256 6.367-8.256 11.796s3.432 10.047 8.256 11.796z" fill="#78c2a4"/><circle cx="94.956" cy="96.677" fill="#b3e59f" r="44.501"/><path d="m107.038 139.511c-3.842 1.09-7.9 1.673-12.087 1.673-24.573 0-44.495-19.933-44.495-44.506s19.922-44.495 44.495-44.495c4.187 0 8.245.583 12.087 1.662-18.713 5.267-32.419 22.447-32.419 42.833-.001 20.386 13.705 37.577 32.419 42.833z" fill="#78c2a4"/></g><g><path d="m126.591 401.382c-2.949 0-5.339-2.391-5.339-5.339v-89.365c0-2.949 2.391-5.339 5.339-5.339 2.949 0 5.339 2.391 5.339 5.339v89.365c0 2.948-2.39 5.339-5.339 5.339z" fill="#78c2a4"/><circle cx="126.591" cy="301.338" fill="#b3e59f" r="9.836"/><path d="m129.964 310.575c-1.048.389-2.18.6-3.372.6-5.434 0-9.837-4.403-9.837-9.837s4.403-9.837 9.837-9.837c1.191 0 2.324.211 3.372.6-3.778 1.369-6.465 4.986-6.465 9.237s2.687 7.868 6.465 9.237z" fill="#78c2a4"/><circle cx="126.591" cy="401.382" fill="#b3e59f" r="9.836"/><path d="m129.964 410.618c-1.048.389-2.18.6-3.372.6-5.434 0-9.837-4.403-9.837-9.837s4.403-9.837 9.837-9.837c1.191 0 2.324.211 3.372.6-3.778 1.369-6.465 4.986-6.465 9.237s2.687 7.868 6.465 9.237z" fill="#78c2a4"/><path d="m91.22 386.731c-2.085-2.085-2.085-5.466 0-7.551l63.19-63.19c2.085-2.085 5.466-2.085 7.551 0 2.085 2.085 2.085 5.466 0 7.551l-63.19 63.19c-2.085 2.085-5.465 2.085-7.551 0z" fill="#78c2a4"/><circle cx="161.962" cy="315.989" fill="#b3e59f" r="9.836"/><path d="m165.335 325.226c-1.048.389-2.18.6-3.372.6-5.434 0-9.837-4.403-9.837-9.837s4.403-9.837 9.837-9.837c1.191 0 2.324.211 3.372.6-3.778 1.369-6.465 4.986-6.465 9.237s2.687 7.868 6.465 9.237z" fill="#78c2a4"/><circle cx="91.22" cy="386.731" fill="#b3e59f" r="9.836"/><path d="m94.593 395.967c-1.048.389-2.18.6-3.372.6-5.434 0-9.837-4.403-9.837-9.837s4.403-9.837 9.837-9.837c1.191 0 2.324.211 3.372.6-3.778 1.369-6.465 4.986-6.465 9.237s2.688 7.868 6.465 9.237z" fill="#78c2a4"/><path d="m76.569 351.36c0-2.949 2.391-5.339 5.339-5.339h89.365c2.949 0 5.339 2.391 5.339 5.339 0 2.949-2.391 5.339-5.339 5.339h-89.364c-2.949 0-5.34-2.39-5.34-5.339z" fill="#78c2a4"/><circle cx="176.613" cy="351.36" fill="#b3e59f" r="9.836"/><path d="m179.986 360.597c-1.048.389-2.18.6-3.372.6-5.434 0-9.837-4.403-9.837-9.837s4.403-9.837 9.837-9.837c1.191 0 2.324.211 3.372.6-3.778 1.369-6.465 4.986-6.465 9.237s2.687 7.868 6.465 9.237z" fill="#78c2a4"/><circle cx="76.569" cy="351.36" fill="#b3e59f" r="9.836"/><path d="m79.942 360.597c-1.048.389-2.18.6-3.372.6-5.434 0-9.837-4.403-9.837-9.837s4.403-9.837 9.837-9.837c1.191 0 2.324.211 3.372.6-3.778 1.369-6.465 4.986-6.465 9.237s2.688 7.868 6.465 9.237z" fill="#78c2a4"/><path d="m91.22 315.989c2.085-2.085 5.466-2.085 7.551 0l63.19 63.19c2.085 2.085 2.085 5.466 0 7.551-2.085 2.085-5.466 2.085-7.551 0l-63.19-63.19c-2.085-2.085-2.085-5.466 0-7.551z" fill="#78c2a4"/><circle cx="161.962" cy="386.731" fill="#b3e59f" r="9.836"/><path d="m165.335 395.967c-1.048.389-2.18.6-3.372.6-5.434 0-9.837-4.403-9.837-9.837s4.403-9.837 9.837-9.837c1.191 0 2.324.211 3.372.6-3.778 1.369-6.465 4.986-6.465 9.237s2.687 7.868 6.465 9.237z" fill="#78c2a4"/><circle cx="91.22" cy="315.989" fill="#b3e59f" r="9.836"/><path d="m94.593 325.226c-1.048.389-2.18.6-3.372.6-5.434 0-9.837-4.403-9.837-9.837s4.403-9.837 9.837-9.837c1.191 0 2.324.211 3.372.6-3.778 1.369-6.465 4.986-6.465 9.237s2.688 7.868 6.465 9.237z" fill="#78c2a4"/><circle cx="126.591" cy="351.36" fill="#b3e59f" r="34.847"/><path d="m136.052 384.901c-3.008.853-6.186 1.31-9.465 1.31-19.242 0-34.842-15.608-34.842-34.851 0-19.242 15.6-34.842 34.842-34.842 3.279 0 6.456.456 9.465 1.301-14.654 4.124-25.386 17.577-25.386 33.541s10.732 29.425 25.386 33.541z" fill="#78c2a4"/></g><g><path d="m350.081 462.309-20.726 9.924-21.197-9.924v-23.334c0-5.318 4.311-9.629 9.629-9.629h22.664c5.318 0 9.629 4.311 9.629 9.629v23.334z" fill="#453d81"/><path d="m350.08 462.31v31.83c-13.45 5.33-27.46 9.54-41.92 12.53v-44.36z" fill="#ffddf1"/><path d="m324.46 462.31v40.42c-5.36 1.49-10.8 2.81-16.3 3.94v-44.36z" fill="#ffceec"/></g><g><path d="m314.906 447.294-22.674 3.734-17.577-15.455 6.524-22.404c1.487-5.106 6.831-8.04 11.937-6.553l21.761 6.337c5.106 1.487 8.04 6.831 6.553 11.937z" fill="#453d81"/><path d="m314.91 447.29-17.89 61.43c-13.36 2.16-27.06 3.28-41.02 3.28-1.2 0-2.39-.01-3.59-.03l22.25-76.4z" fill="#ffddf1"/><path d="m290.31 440.13-20.82 71.51c-4.47.24-8.97.36-13.49.36-1.2 0-2.39-.01-3.59-.03l22.25-76.4z" fill="#ffceec"/></g></g></svg>