<svg width="35" height="35" viewBox="0 0 35 35" fill="none" xmlns="http://www.w3.org/2000/svg">
<path d="M4.17232 22.8982C3.87102 23.0396 3.73808 23.3955 3.87236 23.6996L5.24864 26.6541C5.31626 26.8012 5.43961 26.9158 5.59132 26.9723C5.65779 26.9964 5.72828 27.0088 5.79915 27.0088C5.88784 27.0096 5.97538 26.9906 6.05602 26.9541L16.4545 22.0971L15.5126 31.9449C15.4944 32.1387 15.5691 32.3293 15.7141 32.4588C16.17 32.8362 16.7382 33.0511 17.3293 33.0704C17.4923 33.0702 17.6543 33.0497 17.8124 33.0095C18.6565 32.7892 19.311 32.037 19.7575 30.7523L23.8496 18.6353L31.9541 14.8548C34.3396 13.7417 35.569 11.4847 34.7434 9.72304C34.2749 8.80226 33.3775 8.1759 32.3517 8.05311C31.212 7.8811 30.0472 8.06039 29.0121 8.56723L19.6595 12.9528L9.6039 9.01967C8.33757 8.54271 7.33461 8.55497 6.63124 9.06277C6.04108 9.54701 5.70529 10.2749 5.71966 11.0382C5.72579 11.2319 5.82329 11.411 5.98266 11.5217L12.7537 16.1763L8.87601 18.0114L2.37367 16.3597C2.10723 16.2941 1.82987 16.4142 1.69482 16.6533L0.0741242 19.5708C-0.00996601 19.7254 -0.0231829 19.9089 0.0379214 20.074C0.0986425 20.2393 0.227747 20.3701 0.392288 20.4333L5.20612 22.4214L4.17232 22.8982ZM6.97335 10.7325C7.00936 10.4739 7.14019 10.2385 7.34055 10.0719C7.68936 9.82092 8.3255 9.8577 9.17559 10.1757L18.1305 13.6684L14.0444 15.5768L6.97335 10.7325ZM1.4686 19.5649L2.53285 17.6748L8.7902 19.2283C8.92505 19.2624 9.06737 19.2496 9.19417 19.1919L29.5321 9.69259C30.3407 9.29378 31.2513 9.14859 32.1439 9.27654C32.7699 9.3342 33.3275 9.69546 33.6365 10.2429C34.1498 11.3441 33.1407 12.9528 31.434 13.7479L24.3877 17.0511L24.816 15.7846C24.9242 15.4588 24.7474 15.1067 24.4216 14.9987C24.0954 14.8907 23.7435 15.0675 23.6355 15.3933L18.6014 30.3728C18.3016 31.2233 17.9284 31.7311 17.5126 31.8409C17.255 31.8905 16.9883 31.8399 16.7663 31.7005L17.9897 18.8552C18.0217 18.5175 17.7741 18.2177 17.436 18.1857C17.0983 18.1533 16.7985 18.4014 16.7663 18.7391L16.5769 20.7025L6.08035 25.5958L5.21837 23.7607L6.94289 22.9536C7.1649 22.8557 7.30799 22.6362 7.30799 22.3938C7.30799 22.1513 7.1649 21.9318 6.94289 21.8341L1.4686 19.5649Z" fill="white"/>
</svg>
