<svg width="518" height="402" viewBox="0 0 518 402" fill="none" xmlns="http://www.w3.org/2000/svg">
<path d="M281.222 340H251.778C240.955 340 232.149 331.194 232.149 320.371C232.149 311.242 238.414 303.548 246.871 301.363V293.22C246.871 291.358 245.519 289.745 243.655 289.383C227.982 286.337 213.306 280.259 200.035 271.316C198.446 270.245 196.337 270.424 195.019 271.74L189.211 277.549C193.262 284.601 192.75 293.686 187.423 300.047C183.881 304.275 178.704 306.839 173.218 307.08C167.733 307.317 162.354 305.234 158.47 301.351L137.65 280.531C133.943 276.824 131.901 271.895 131.901 266.651C131.901 261.408 133.943 256.478 137.65 252.771C141.358 249.064 146.287 247.022 151.53 247.022C155.095 247.022 158.516 247.966 161.505 249.736L167.26 243.981C168.577 242.664 168.755 240.555 167.684 238.965C158.742 225.694 152.663 211.018 149.618 195.346C149.255 193.481 147.642 192.129 145.781 192.129H137.645C136.756 195.608 134.918 198.781 132.259 201.347C128.391 205.08 123.303 207.02 117.919 206.839C107.31 206.461 99 197.706 99 186.908V157.778C99 152.411 101.125 147.4 104.984 143.668C108.843 139.937 113.936 137.981 119.296 138.161C127.976 138.45 135.312 144.669 137.554 152.871H145.78C147.642 152.871 149.255 151.519 149.617 149.655C152.663 133.982 158.741 119.306 167.684 106.035C168.755 104.445 168.576 102.336 167.26 101.019L161.504 95.2642C158.515 97.034 155.095 97.9775 151.53 97.9775C146.286 97.9775 141.357 95.9361 137.649 92.2289C129.996 84.5756 129.996 72.1224 137.649 64.4684L158.469 43.6493C166.122 35.9954 178.575 35.9967 186.229 43.6493C189.936 47.3572 191.978 52.286 191.978 57.5296C191.978 61.0942 191.034 64.5148 189.264 67.5043L195.019 73.2595C196.337 74.5773 198.445 74.7546 200.034 73.6835C213.306 64.7412 227.982 58.6628 243.654 55.6171C245.519 55.2546 246.871 53.6411 246.871 51.7803V43.6369C238.414 41.4522 232.149 33.7583 232.149 24.6289C232.149 13.8055 240.955 5 251.778 5H281.222C292.045 5 300.851 13.8055 300.851 24.6289C300.851 33.7583 294.586 41.4522 286.129 43.6369V51.7803C286.129 53.6417 287.481 55.2552 289.345 55.6171C305.018 58.6628 319.694 64.7412 332.965 73.6835C334.554 74.7546 336.664 74.5766 337.981 73.2595L343.741 67.4997C339.306 59.9734 340.316 50.104 346.771 43.6493C354.424 35.9967 366.877 35.9954 374.531 43.6493L395.351 64.4684C403.004 72.1217 403.004 84.5749 395.351 92.2289C391.643 95.9361 386.714 97.9775 381.47 97.9775C377.906 97.9775 374.485 97.034 371.496 95.2642L365.74 101.019C364.423 102.336 364.245 104.445 365.316 106.035C374.259 119.306 380.337 133.982 383.383 149.654C383.745 151.519 385.359 152.871 387.22 152.871H395.432C397.554 145.019 404.341 138.957 412.606 138.227H412.607C418.103 137.737 423.575 139.591 427.625 143.299C431.676 147.009 434 152.286 434 157.778V187.222C434 192.714 431.676 197.991 427.625 201.701C423.575 205.409 418.097 207.257 412.607 206.773C404.341 206.043 397.554 199.981 395.432 192.129H387.22C385.358 192.129 383.745 193.481 383.383 195.345C380.337 211.018 374.259 225.694 365.316 238.965C364.245 240.555 364.424 242.664 365.74 243.981L371.496 249.736C374.485 247.966 377.906 247.022 381.47 247.022C386.714 247.022 391.643 249.064 395.351 252.771C399.058 256.478 401.099 261.408 401.099 266.651C401.099 271.895 399.058 276.824 395.35 280.531L374.531 301.351C370.647 305.235 365.275 307.323 359.782 307.08C354.297 306.839 349.12 304.275 345.578 300.047C340.25 293.686 339.737 284.601 343.79 277.549L337.981 271.74C336.664 270.423 334.555 270.245 332.967 271.316C319.694 280.259 305.018 286.337 289.347 289.383C287.482 289.745 286.13 291.359 286.13 293.22V301.363C294.586 303.548 300.851 311.242 300.851 320.371C300.851 331.194 292.045 340 281.222 340ZM197.773 257.539C201.091 257.539 204.433 258.5 207.348 260.464C219.155 268.42 232.211 273.828 246.151 276.537C254.15 278.091 259.957 285.107 259.957 293.22V305.649C259.957 310.159 256.288 313.828 251.778 313.828C248.171 313.828 245.235 316.763 245.235 320.371C245.235 323.979 248.171 326.914 251.778 326.914H281.222C284.829 326.914 287.765 323.979 287.765 320.371C287.765 316.763 284.829 313.828 281.222 313.828C276.712 313.828 273.043 310.159 273.043 305.649V293.22C273.043 285.108 278.85 278.091 286.85 276.537C300.79 273.828 313.846 268.42 325.654 260.464C332.424 255.903 341.5 256.752 347.234 262.487L356.234 271.487C359.307 274.56 359.307 279.562 356.234 282.635C353.741 285.129 353.467 289.085 355.609 291.645C356.818 293.086 358.505 293.926 360.359 294.008C362.226 294.085 363.965 293.411 365.279 292.098L386.098 271.278C387.334 270.042 388.014 268.4 388.014 266.652C388.014 264.904 387.334 263.261 386.098 262.025C383.547 259.474 379.395 259.476 376.845 262.025L376.635 262.235C373.563 265.308 368.561 265.309 365.487 262.235L356.487 253.235C350.753 247.501 349.903 238.424 354.464 231.654C362.42 219.846 367.828 206.79 370.537 192.85C372.091 184.85 379.107 179.043 387.22 179.043H399.944C404.291 179.043 407.828 182.579 407.828 186.927C407.828 190.453 410.432 193.444 413.757 193.738C415.63 193.901 417.418 193.303 418.786 192.05C420.158 190.794 420.913 189.079 420.913 187.222V157.778C420.913 155.921 420.158 154.206 418.786 152.95C417.417 151.695 415.621 151.095 413.757 151.262C410.432 151.556 407.828 154.547 407.828 158.073C407.828 162.42 404.292 165.957 399.944 165.957H387.22C379.108 165.957 372.091 160.15 370.537 152.15C367.828 138.21 362.42 125.154 354.464 113.346C349.902 106.576 350.753 97.4993 356.487 91.7656L365.278 82.9752C368.468 79.7861 373.656 79.7868 376.845 82.9752C379.396 85.5256 383.547 85.5269 386.098 82.9752C388.649 80.4241 388.649 76.2732 386.098 73.7215L365.279 52.9024C362.729 50.3526 358.578 50.35 356.025 52.9024C353.474 55.4528 353.474 59.6043 356.025 62.1554C359.215 65.3445 359.215 70.5337 356.025 73.7228L347.235 82.5132C341.5 88.2475 332.424 89.0981 325.654 84.5363C313.846 76.5807 300.79 71.1723 286.85 68.4635C278.85 66.9089 273.043 59.8929 273.043 51.7803V39.3506C273.043 34.8405 276.712 31.1719 281.222 31.1719C284.829 31.1719 287.765 28.2367 287.765 24.6289C287.765 21.0211 284.829 18.0859 281.222 18.0859H251.778C248.171 18.0859 245.235 21.0211 245.235 24.6289C245.235 28.2367 248.171 31.1719 251.778 31.1719C256.288 31.1719 259.957 34.8405 259.957 39.3506V51.7803C259.957 59.8922 254.15 66.9089 246.15 68.4629C232.21 71.1723 219.154 76.5801 207.346 84.5357C200.576 89.0974 191.5 88.2475 185.766 82.5126L176.975 73.7221C175.431 72.1773 174.58 70.1235 174.58 67.9388C174.58 65.7528 175.432 63.6983 176.978 62.1535C179.527 59.6043 179.527 55.4528 176.975 52.9017C174.424 50.3493 170.273 50.3506 167.722 52.9017L146.902 73.7208C144.351 76.2719 144.351 80.4228 146.902 82.9745C148.138 84.2105 149.781 84.891 151.529 84.891C153.277 84.891 154.919 84.2111 156.155 82.9752C159.343 79.7855 164.532 79.7861 167.722 82.9745L176.513 91.765C182.247 97.4993 183.097 106.576 178.536 113.346C170.58 125.154 165.172 138.21 162.463 152.15C160.909 160.15 153.893 165.957 145.78 165.957H133.008C128.687 165.957 125.172 162.442 125.172 158.121C125.172 154.443 122.34 151.355 118.86 151.239C117.069 151.173 115.367 151.829 114.082 153.075C112.795 154.318 112.086 155.989 112.086 157.778V186.908C112.086 190.563 114.911 193.637 118.384 193.761C120.187 193.827 121.883 193.175 123.171 191.931C124.461 190.686 125.172 189.013 125.172 187.222C125.172 182.712 128.841 179.043 133.351 179.043H145.78C153.892 179.043 160.909 184.85 162.463 192.85C165.172 206.79 170.58 219.846 178.536 231.654C183.098 238.424 182.247 247.501 176.513 253.234L167.513 262.234C164.439 265.308 159.438 265.307 156.365 262.234L156.155 262.025C154.919 260.788 153.277 260.108 151.53 260.108C149.782 260.108 148.138 260.789 146.903 262.025C145.667 263.261 144.987 264.903 144.987 266.651C144.987 268.399 145.666 270.042 146.902 271.277L167.723 292.097C169.037 293.41 170.787 294.089 172.642 294.007C174.496 293.925 176.183 293.086 177.391 291.644C179.534 289.085 179.26 285.128 176.767 282.635C173.693 279.561 173.693 274.56 176.766 271.487L185.766 262.487C189.032 259.221 193.382 257.539 197.773 257.539Z" fill="white"/>
<path d="M241.227 144.94C226.074 144.94 213.747 132.612 213.747 117.459C213.747 102.306 226.074 89.9788 241.227 89.9788C256.38 89.9788 268.708 102.306 268.708 117.459C268.708 132.612 256.38 144.94 241.227 144.94ZM241.227 103.065C233.29 103.065 226.833 109.522 226.833 117.459C226.833 125.397 233.29 131.854 241.227 131.854C249.164 131.854 255.622 125.397 255.622 117.459C255.622 109.522 249.164 103.065 241.227 103.065Z" fill="white"/>
<path d="M222.662 237.802C209.554 237.802 198.89 227.138 198.89 214.03C198.89 200.921 209.554 190.256 222.662 190.256C235.77 190.256 246.435 200.921 246.435 214.03C246.435 227.138 235.77 237.802 222.662 237.802ZM222.662 203.342C216.77 203.342 211.975 208.136 211.975 214.03C211.975 219.922 216.77 224.716 222.662 224.716C228.555 224.716 233.349 219.922 233.349 214.03C233.349 208.136 228.555 203.342 222.662 203.342Z" fill="white"/>
<path d="M312.192 231.292C291.686 231.292 274.432 215.952 272.058 195.61C271.638 192.021 274.209 188.772 277.798 188.352C281.388 187.936 284.636 190.503 285.055 194.093C286.66 207.84 298.326 218.206 312.192 218.206C327.257 218.206 339.514 205.949 339.514 190.883C339.514 176.93 329.074 165.254 315.23 163.727C311.639 163.331 309.048 160.097 309.444 156.506C309.841 152.914 313.077 150.33 316.665 150.72C337.152 152.98 352.6 170.247 352.6 190.883C352.6 213.165 334.473 231.292 312.192 231.292Z" fill="white"/>
<path d="M303.795 124.004C302.074 124.004 300.386 123.303 299.169 122.086C297.952 120.869 297.252 119.181 297.252 117.461C297.252 115.733 297.951 114.052 299.169 112.835C300.386 111.618 302.074 110.918 303.795 110.918C305.516 110.918 307.204 111.618 308.42 112.835C309.637 114.052 310.338 115.74 310.338 117.461C310.338 119.181 309.638 120.869 308.42 122.086C307.204 123.303 305.516 124.004 303.795 124.004Z" fill="white"/>
<path d="M266.5 256.904C264.779 256.904 263.091 256.204 261.874 254.987C260.657 253.77 259.957 252.082 259.957 250.361C259.957 248.641 260.656 246.952 261.874 245.735C263.091 244.518 264.773 243.818 266.5 243.818C268.221 243.818 269.909 244.518 271.125 245.735C272.342 246.952 273.043 248.641 273.043 250.361C273.043 252.082 272.343 253.77 271.125 254.987C269.909 256.204 268.221 256.904 266.5 256.904Z" fill="white"/>
<path d="M193.003 179.128C191.275 179.128 189.594 178.428 188.377 177.211C187.153 175.994 186.46 174.306 186.46 172.585C186.46 170.858 187.153 169.176 188.377 167.959C189.588 166.736 191.276 166.042 193.003 166.042C194.724 166.042 196.412 166.736 197.629 167.959C198.845 169.176 199.546 170.864 199.546 172.585C199.546 174.306 198.846 175.987 197.629 177.211C196.412 178.428 194.724 179.128 193.003 179.128Z" fill="white"/>
<path d="M288.17 173.56C286.45 173.56 284.761 172.86 283.544 171.642C282.327 170.426 281.627 168.738 281.627 167.017C281.627 165.289 282.327 163.608 283.544 162.385C284.761 161.168 286.45 160.474 288.17 160.474C289.891 160.474 291.579 161.168 292.796 162.385C294.013 163.608 294.713 165.29 294.713 167.017C294.713 168.738 294.013 170.419 292.796 171.642C291.579 172.86 289.891 173.56 288.17 173.56Z" fill="white"/>
<path d="M271.222 339H241.778C230.955 339 222.149 330.194 222.149 319.371C222.149 310.242 228.414 302.548 236.871 300.363V292.22C236.871 290.358 235.519 288.745 233.655 288.383C217.982 285.337 203.306 279.259 190.035 270.316C188.446 269.245 186.337 269.424 185.019 270.74L179.211 276.549C183.262 283.601 182.75 292.686 177.423 299.047C173.881 303.275 168.704 305.839 163.218 306.08C157.733 306.317 152.354 304.234 148.47 300.351L127.65 279.531C123.943 275.824 121.901 270.895 121.901 265.651C121.901 260.408 123.943 255.478 127.65 251.771C131.358 248.064 136.287 246.022 141.53 246.022C145.095 246.022 148.516 246.966 151.505 248.736L157.26 242.981C158.577 241.664 158.755 239.555 157.684 237.965C148.742 224.694 142.663 210.018 139.618 194.346C139.255 192.481 137.642 191.129 135.781 191.129H127.645C126.756 194.608 124.918 197.781 122.259 200.347C118.391 204.08 113.303 206.02 107.919 205.839C97.3102 205.461 89 196.706 89 185.908V156.778C89 151.411 91.1252 146.4 94.9842 142.668C98.8432 138.937 103.936 136.981 109.296 137.161C117.976 137.45 125.312 143.669 127.554 151.871H135.78C137.642 151.871 139.255 150.519 139.617 148.655C142.663 132.982 148.741 118.306 157.684 105.035C158.755 103.445 158.576 101.336 157.26 100.019L151.504 94.2642C148.515 96.034 145.095 96.9775 141.53 96.9775C136.286 96.9775 131.357 94.9361 127.649 91.2289C119.996 83.5756 119.996 71.1224 127.649 63.4684L148.469 42.6493C156.122 34.9954 168.575 34.9967 176.229 42.6493C179.936 46.3572 181.978 51.286 181.978 56.5296C181.978 60.0942 181.034 63.5148 179.264 66.5043L185.019 72.2595C186.337 73.5773 188.445 73.7546 190.034 72.6835C203.306 63.7412 217.982 57.6628 233.654 54.6171C235.519 54.2546 236.871 52.6411 236.871 50.7803V42.6369C228.414 40.4522 222.149 32.7583 222.149 23.6289C222.149 12.8055 230.955 4 241.778 4H271.222C282.045 4 290.851 12.8055 290.851 23.6289C290.851 32.7583 284.586 40.4522 276.129 42.6369V50.7803C276.129 52.6417 277.481 54.2552 279.345 54.6171C295.018 57.6628 309.694 63.7412 322.965 72.6835C324.554 73.7546 326.664 73.5766 327.981 72.2595L333.741 66.4997C329.306 58.9734 330.316 49.104 336.771 42.6493C344.424 34.9967 356.877 34.9954 364.531 42.6493L385.351 63.4684C393.004 71.1217 393.004 83.5749 385.351 91.2289C381.643 94.9361 376.714 96.9775 371.47 96.9775C367.906 96.9775 364.485 96.034 361.496 94.2642L355.74 100.019C354.423 101.336 354.245 103.445 355.316 105.035C364.259 118.306 370.337 132.982 373.383 148.654C373.745 150.519 375.359 151.871 377.22 151.871H385.432C387.554 144.019 394.341 137.957 402.606 137.227H402.607C408.103 136.737 413.575 138.591 417.625 142.299C421.676 146.009 424 151.286 424 156.778V186.222C424 191.714 421.676 196.991 417.625 200.701C413.575 204.409 408.097 206.257 402.607 205.773C394.341 205.043 387.554 198.981 385.432 191.129H377.22C375.358 191.129 373.745 192.481 373.383 194.345C370.337 210.018 364.259 224.694 355.316 237.965C354.245 239.555 354.424 241.664 355.74 242.981L361.496 248.736C364.485 246.966 367.906 246.022 371.47 246.022C376.714 246.022 381.643 248.064 385.351 251.771C389.058 255.478 391.099 260.408 391.099 265.651C391.099 270.895 389.058 275.824 385.35 279.531L364.531 300.351C360.647 304.235 355.275 306.323 349.782 306.08C344.297 305.839 339.12 303.275 335.578 299.047C330.25 292.686 329.737 283.601 333.79 276.549L327.981 270.74C326.664 269.423 324.555 269.245 322.967 270.316C309.694 279.259 295.018 285.337 279.347 288.383C277.482 288.745 276.13 290.359 276.13 292.22V300.363C284.586 302.548 290.851 310.242 290.851 319.371C290.851 330.194 282.045 339 271.222 339ZM187.773 256.539C191.091 256.539 194.433 257.5 197.348 259.464C209.155 267.42 222.211 272.828 236.151 275.537C244.15 277.091 249.957 284.107 249.957 292.22V304.649C249.957 309.159 246.288 312.828 241.778 312.828C238.171 312.828 235.235 315.763 235.235 319.371C235.235 322.979 238.171 325.914 241.778 325.914H271.222C274.829 325.914 277.765 322.979 277.765 319.371C277.765 315.763 274.829 312.828 271.222 312.828C266.712 312.828 263.043 309.159 263.043 304.649V292.22C263.043 284.108 268.85 277.091 276.85 275.537C290.79 272.828 303.846 267.42 315.654 259.464C322.424 254.903 331.5 255.752 337.234 261.487L346.234 270.487C349.307 273.56 349.307 278.562 346.234 281.635C343.741 284.129 343.467 288.085 345.609 290.645C346.818 292.086 348.505 292.926 350.359 293.008C352.226 293.085 353.965 292.411 355.279 291.098L376.098 270.278C377.334 269.042 378.014 267.4 378.014 265.652C378.014 263.904 377.334 262.261 376.098 261.025C373.547 258.474 369.395 258.476 366.845 261.025L366.635 261.235C363.563 264.308 358.561 264.309 355.487 261.235L346.487 252.235C340.753 246.501 339.903 237.424 344.464 230.654C352.42 218.846 357.828 205.79 360.537 191.85C362.091 183.85 369.107 178.043 377.22 178.043H389.944C394.291 178.043 397.828 181.579 397.828 185.927C397.828 189.453 400.432 192.444 403.757 192.738C405.63 192.901 407.418 192.303 408.786 191.05C410.158 189.794 410.913 188.079 410.913 186.222V156.778C410.913 154.921 410.158 153.206 408.786 151.95C407.417 150.695 405.621 150.095 403.757 150.262C400.432 150.556 397.828 153.547 397.828 157.073C397.828 161.42 394.292 164.957 389.944 164.957H377.22C369.108 164.957 362.091 159.15 360.537 151.15C357.828 137.21 352.42 124.154 344.464 112.346C339.902 105.576 340.753 96.4993 346.487 90.7656L355.278 81.9752C358.468 78.7861 363.656 78.7868 366.845 81.9752C369.396 84.5256 373.547 84.5269 376.098 81.9752C378.649 79.4241 378.649 75.2732 376.098 72.7215L355.279 51.9024C352.729 49.3526 348.578 49.35 346.025 51.9024C343.474 54.4528 343.474 58.6043 346.025 61.1554C349.215 64.3445 349.215 69.5337 346.025 72.7228L337.235 81.5132C331.5 87.2475 322.424 88.0981 315.654 83.5363C303.846 75.5807 290.79 70.1723 276.85 67.4635C268.85 65.9089 263.043 58.8929 263.043 50.7803V38.3506C263.043 33.8405 266.712 30.1719 271.222 30.1719C274.829 30.1719 277.765 27.2367 277.765 23.6289C277.765 20.0211 274.829 17.0859 271.222 17.0859H241.778C238.171 17.0859 235.235 20.0211 235.235 23.6289C235.235 27.2367 238.171 30.1719 241.778 30.1719C246.288 30.1719 249.957 33.8405 249.957 38.3506V50.7803C249.957 58.8922 244.15 65.9089 236.15 67.4629C222.21 70.1723 209.154 75.5801 197.346 83.5357C190.576 88.0974 181.5 87.2475 175.766 81.5126L166.975 72.7221C165.431 71.1773 164.58 69.1235 164.58 66.9388C164.58 64.7528 165.432 62.6983 166.978 61.1535C169.527 58.6043 169.527 54.4528 166.975 51.9017C164.424 49.3493 160.273 49.3506 157.722 51.9017L136.902 72.7208C134.351 75.2719 134.351 79.4228 136.902 81.9745C138.138 83.2105 139.781 83.891 141.529 83.891C143.277 83.891 144.919 83.2111 146.155 81.9752C149.343 78.7855 154.532 78.7861 157.722 81.9745L166.513 90.765C172.247 96.4993 173.097 105.576 168.536 112.346C160.58 124.154 155.172 137.21 152.463 151.15C150.909 159.15 143.893 164.957 135.78 164.957H123.008C118.687 164.957 115.172 161.442 115.172 157.121C115.172 153.443 112.34 150.355 108.86 150.239C107.069 150.173 105.367 150.829 104.082 152.075C102.795 153.318 102.086 154.989 102.086 156.778V185.908C102.086 189.563 104.911 192.637 108.384 192.761C110.187 192.827 111.883 192.175 113.171 190.931C114.461 189.686 115.172 188.013 115.172 186.222C115.172 181.712 118.841 178.043 123.351 178.043H135.78C143.892 178.043 150.909 183.85 152.463 191.85C155.172 205.79 160.58 218.846 168.536 230.654C173.098 237.424 172.247 246.501 166.513 252.234L157.513 261.234C154.439 264.308 149.438 264.307 146.365 261.234L146.155 261.025C144.919 259.788 143.277 259.108 141.53 259.108C139.782 259.108 138.138 259.789 136.903 261.025C135.667 262.261 134.987 263.903 134.987 265.651C134.987 267.399 135.666 269.042 136.902 270.277L157.723 291.097C159.037 292.41 160.787 293.089 162.642 293.007C164.496 292.925 166.183 292.086 167.391 290.644C169.534 288.085 169.26 284.128 166.767 281.635C163.693 278.561 163.693 273.56 166.766 270.487L175.766 261.487C179.032 258.221 183.382 256.539 187.773 256.539Z" fill="#1A1D5A"/>
<path d="M231.227 143.94C216.074 143.94 203.747 131.612 203.747 116.459C203.747 101.306 216.074 88.9788 231.227 88.9788C246.38 88.9788 258.708 101.306 258.708 116.459C258.708 131.612 246.38 143.94 231.227 143.94ZM231.227 102.065C223.29 102.065 216.833 108.522 216.833 116.459C216.833 124.397 223.29 130.854 231.227 130.854C239.164 130.854 245.622 124.397 245.622 116.459C245.622 108.522 239.164 102.065 231.227 102.065Z" fill="#1A1D5A"/>
<path d="M212.662 236.802C199.554 236.802 188.89 226.138 188.89 213.03C188.89 199.921 199.554 189.256 212.662 189.256C225.77 189.256 236.435 199.921 236.435 213.03C236.435 226.138 225.77 236.802 212.662 236.802ZM212.662 202.342C206.77 202.342 201.975 207.136 201.975 213.03C201.975 218.922 206.77 223.716 212.662 223.716C218.555 223.716 223.349 218.922 223.349 213.03C223.349 207.136 218.555 202.342 212.662 202.342Z" fill="#1A1D5A"/>
<path d="M302.192 230.292C281.686 230.292 264.432 214.952 262.058 194.61C261.638 191.021 264.209 187.772 267.798 187.352C271.388 186.936 274.636 189.503 275.055 193.093C276.66 206.84 288.326 217.206 302.192 217.206C317.257 217.206 329.514 204.949 329.514 189.883C329.514 175.93 319.074 164.254 305.23 162.727C301.639 162.331 299.048 159.097 299.444 155.506C299.841 151.914 303.077 149.33 306.665 149.72C327.152 151.98 342.6 169.247 342.6 189.883C342.6 212.165 324.473 230.292 302.192 230.292Z" fill="#1A1D5A"/>
<path d="M293.795 123.004C292.074 123.004 290.386 122.303 289.169 121.086C287.952 119.869 287.252 118.181 287.252 116.461C287.252 114.733 287.951 113.052 289.169 111.835C290.386 110.618 292.074 109.918 293.795 109.918C295.516 109.918 297.204 110.618 298.42 111.835C299.637 113.052 300.338 114.74 300.338 116.461C300.338 118.181 299.638 119.869 298.42 121.086C297.204 122.303 295.516 123.004 293.795 123.004Z" fill="#1A1D5A"/>
<path d="M256.5 255.904C254.779 255.904 253.091 255.204 251.874 253.987C250.657 252.77 249.957 251.082 249.957 249.361C249.957 247.641 250.656 245.952 251.874 244.735C253.091 243.518 254.773 242.818 256.5 242.818C258.221 242.818 259.909 243.518 261.125 244.735C262.342 245.952 263.043 247.641 263.043 249.361C263.043 251.082 262.343 252.77 261.125 253.987C259.909 255.204 258.221 255.904 256.5 255.904Z" fill="#1A1D5A"/>
<path d="M183.003 178.128C181.275 178.128 179.594 177.428 178.377 176.211C177.153 174.994 176.46 173.306 176.46 171.585C176.46 169.858 177.153 168.176 178.377 166.959C179.588 165.736 181.276 165.042 183.003 165.042C184.724 165.042 186.412 165.736 187.629 166.959C188.845 168.176 189.546 169.864 189.546 171.585C189.546 173.306 188.846 174.987 187.629 176.211C186.412 177.428 184.724 178.128 183.003 178.128Z" fill="#1A1D5A"/>
<path d="M278.17 172.56C276.45 172.56 274.761 171.86 273.544 170.642C272.327 169.426 271.627 167.738 271.627 166.017C271.627 164.289 272.327 162.608 273.544 161.385C274.761 160.168 276.45 159.474 278.17 159.474C279.891 159.474 281.579 160.168 282.796 161.385C284.013 162.608 284.713 164.29 284.713 166.017C284.713 167.738 284.013 169.419 282.796 170.642C281.579 171.86 279.891 172.56 278.17 172.56Z" fill="#1A1D5A"/>
<g clip-path="url(#clip0)">
<path d="M350.522 401.843H345.913C344.219 401.843 342.841 400.465 342.841 398.771C342.841 397.342 343.821 396.138 345.145 395.796V394.521C345.145 394.23 344.933 393.978 344.642 393.921C342.189 393.444 339.891 392.493 337.814 391.093C337.565 390.925 337.235 390.953 337.029 391.159L336.12 392.068C336.754 393.172 336.674 394.594 335.84 395.59C335.286 396.252 334.475 396.653 333.617 396.691C332.758 396.728 331.916 396.402 331.308 395.794L328.05 392.535C327.469 391.955 327.15 391.184 327.15 390.363C327.15 389.542 327.469 388.771 328.05 388.19C328.63 387.61 329.401 387.29 330.222 387.29C330.78 387.29 331.316 387.438 331.783 387.715L332.684 386.814C332.89 386.608 332.918 386.278 332.751 386.029C331.351 383.952 330.399 381.655 329.923 379.202C329.866 378.91 329.613 378.698 329.322 378.698H328.049C327.91 379.243 327.622 379.74 327.206 380.141C326.6 380.726 325.804 381.029 324.961 381.001C323.301 380.942 322 379.571 322 377.881V373.322C322 372.482 322.333 371.697 322.937 371.113C323.541 370.529 324.338 370.223 325.177 370.251C326.535 370.297 327.684 371.27 328.035 372.554H329.322C329.613 372.554 329.866 372.342 329.923 372.05C330.399 369.597 331.351 367.3 332.75 365.223C332.918 364.974 332.89 364.644 332.684 364.438L331.783 363.537C331.315 363.814 330.78 363.962 330.222 363.962C329.401 363.962 328.63 363.642 328.049 363.062C326.852 361.864 326.852 359.915 328.049 358.717L331.308 355.458C332.506 354.26 334.455 354.26 335.653 355.458C336.233 356.039 336.553 356.81 336.553 357.631C336.553 358.189 336.405 358.724 336.128 359.192L337.029 360.093C337.235 360.299 337.565 360.327 337.814 360.159C339.891 358.759 342.189 357.808 344.641 357.331C344.933 357.275 345.145 357.022 345.145 356.731V355.456C343.821 355.114 342.841 353.91 342.841 352.481C342.841 350.787 344.219 349.409 345.913 349.409H350.522C352.216 349.409 353.594 350.787 353.594 352.481C353.594 353.91 352.613 355.114 351.29 355.456V356.731C351.29 357.022 351.501 357.275 351.793 357.331C354.246 357.808 356.543 358.759 358.621 360.159C358.869 360.327 359.2 360.299 359.406 360.093L360.307 359.191C359.613 358.013 359.771 356.468 360.782 355.458C361.979 354.26 363.929 354.26 365.127 355.458L368.385 358.717C369.583 359.915 369.583 361.864 368.385 363.062C367.805 363.642 367.033 363.962 366.213 363.962C365.655 363.962 365.119 363.814 364.652 363.537L363.751 364.438C363.545 364.644 363.517 364.974 363.684 365.223C365.084 367.3 366.035 369.597 366.512 372.05C366.569 372.342 366.821 372.554 367.113 372.554H368.398C368.73 371.325 369.793 370.376 371.086 370.262H371.086C371.947 370.185 372.803 370.475 373.437 371.055C374.071 371.636 374.435 372.462 374.435 373.322V377.93C374.435 378.79 374.071 379.616 373.437 380.197C372.803 380.777 371.946 381.066 371.086 380.991C369.793 380.876 368.73 379.927 368.398 378.698H367.113C366.821 378.698 366.569 378.91 366.512 379.202C366.035 381.655 365.084 383.952 363.684 386.029C363.517 386.278 363.545 386.608 363.751 386.814L364.652 387.715C365.119 387.438 365.655 387.29 366.213 387.29C367.033 387.29 367.805 387.61 368.385 388.19C368.966 388.771 369.285 389.542 369.285 390.363C369.285 391.184 368.966 391.955 368.385 392.535L365.127 395.794C364.519 396.402 363.678 396.729 362.818 396.691C361.96 396.653 361.149 396.252 360.595 395.59C359.761 394.594 359.681 393.172 360.315 392.068L359.406 391.159C359.2 390.953 358.87 390.925 358.621 391.093C356.543 392.493 354.246 393.444 351.793 393.921C351.502 393.978 351.29 394.23 351.29 394.521V395.796C352.614 396.138 353.594 397.342 353.594 398.771C353.594 400.465 352.216 401.843 350.522 401.843ZM337.46 388.937C337.98 388.937 338.503 389.087 338.959 389.394C340.807 390.64 342.85 391.486 345.032 391.91C346.284 392.153 347.193 393.252 347.193 394.521V396.467C347.193 397.173 346.619 397.747 345.913 397.747C345.348 397.747 344.889 398.206 344.889 398.771C344.889 399.336 345.348 399.795 345.913 399.795H350.522C351.086 399.795 351.546 399.336 351.546 398.771C351.546 398.206 351.086 397.747 350.522 397.747C349.816 397.747 349.242 397.173 349.242 396.467V394.521C349.242 393.252 350.15 392.153 351.403 391.91C353.584 391.486 355.628 390.64 357.476 389.394C358.536 388.68 359.957 388.813 360.854 389.711L362.263 391.12C362.744 391.601 362.744 392.384 362.263 392.865C361.872 393.255 361.83 393.874 362.165 394.275C362.354 394.5 362.618 394.632 362.908 394.645C363.201 394.657 363.473 394.551 363.678 394.346L366.937 391.087C367.131 390.894 367.237 390.636 367.237 390.363C367.237 390.089 367.13 389.832 366.937 389.639C366.538 389.239 365.888 389.24 365.489 389.639L365.456 389.672C364.975 390.153 364.192 390.153 363.711 389.672L362.302 388.263C361.405 387.365 361.272 385.945 361.986 384.885C363.231 383.037 364.077 380.993 364.501 378.811C364.745 377.559 365.843 376.65 367.113 376.65H369.104C369.785 376.65 370.338 377.204 370.338 377.884C370.338 378.436 370.746 378.904 371.266 378.95C371.559 378.976 371.839 378.882 372.054 378.686C372.268 378.49 372.386 378.221 372.386 377.93V373.322C372.386 373.031 372.268 372.763 372.054 372.566C371.839 372.37 371.558 372.276 371.266 372.302C370.746 372.348 370.338 372.816 370.338 373.368C370.338 374.048 369.785 374.602 369.104 374.602H367.113C365.843 374.602 364.745 373.693 364.501 372.441C364.077 370.259 363.231 368.215 361.986 366.367C361.272 365.307 361.405 363.887 362.302 362.989L363.678 361.614C364.178 361.114 364.99 361.114 365.489 361.614C365.888 362.013 366.538 362.013 366.937 361.614C367.336 361.214 367.336 360.564 366.937 360.165L363.678 356.906C363.279 356.507 362.63 356.507 362.23 356.906C361.831 357.306 361.831 357.955 362.23 358.355C362.729 358.854 362.729 359.666 362.23 360.165L360.854 361.541C359.957 362.439 358.536 362.572 357.476 361.858C355.628 360.613 353.585 359.766 351.403 359.342C350.15 359.099 349.242 358.001 349.242 356.731V354.785C349.242 354.079 349.816 353.505 350.522 353.505C351.086 353.505 351.546 353.046 351.546 352.481C351.546 351.916 351.086 351.457 350.522 351.457H345.913C345.348 351.457 344.889 351.916 344.889 352.481C344.889 353.046 345.348 353.505 345.913 353.505C346.619 353.505 347.193 354.079 347.193 354.785V356.731C347.193 358.001 346.284 359.099 345.032 359.342C342.85 359.766 340.807 360.613 338.959 361.858C337.899 362.572 336.478 362.439 335.581 361.541L334.205 360.165C333.963 359.923 333.83 359.602 333.83 359.26C333.83 358.918 333.963 358.596 334.205 358.354C334.604 357.955 334.604 357.306 334.205 356.906C333.806 356.507 333.156 356.507 332.757 356.906L329.498 360.165C329.098 360.564 329.098 361.214 329.498 361.613C329.691 361.807 329.948 361.913 330.222 361.913C330.495 361.913 330.753 361.807 330.946 361.614C331.445 361.114 332.257 361.114 332.757 361.613L334.132 362.989C335.03 363.887 335.163 365.307 334.449 366.367C333.204 368.215 332.357 370.259 331.933 372.441C331.69 373.693 330.592 374.602 329.322 374.602H327.323C326.647 374.602 326.096 374.052 326.096 373.375C326.096 372.8 325.653 372.316 325.109 372.298C324.828 372.288 324.562 372.391 324.361 372.586C324.159 372.78 324.048 373.042 324.048 373.322V377.881C324.048 378.453 324.49 378.934 325.034 378.954C325.316 378.964 325.582 378.862 325.783 378.668C325.985 378.473 326.096 378.211 326.096 377.93C326.096 377.224 326.671 376.65 327.377 376.65H329.322C330.592 376.65 331.69 377.559 331.933 378.811C332.357 380.993 333.204 383.037 334.449 384.885C335.163 385.945 335.03 387.365 334.132 388.263L332.724 389.671C332.243 390.153 331.46 390.152 330.979 389.671L330.946 389.639C330.753 389.445 330.496 389.339 330.222 389.339C329.948 389.339 329.691 389.445 329.498 389.639C329.304 389.832 329.198 390.089 329.198 390.363C329.198 390.636 329.304 390.894 329.498 391.087L332.757 394.346C332.962 394.551 333.236 394.657 333.527 394.645C333.817 394.632 334.081 394.5 334.27 394.275C334.605 393.874 334.562 393.255 334.172 392.865C333.691 392.384 333.691 391.601 334.172 391.12L335.581 389.711C336.092 389.2 336.773 388.937 337.46 388.937Z" fill="#1A1D5A"/>
<path d="M344.262 371.312C341.89 371.312 339.96 369.383 339.96 367.011C339.96 364.639 341.89 362.71 344.262 362.71C346.633 362.71 348.563 364.639 348.563 367.011C348.563 369.383 346.633 371.312 344.262 371.312ZM344.262 364.758C343.019 364.758 342.009 365.769 342.009 367.011C342.009 368.253 343.019 369.264 344.262 369.264C345.504 369.264 346.515 368.253 346.515 367.011C346.515 365.769 345.504 364.758 344.262 364.758Z" fill="#1A1D5A"/>
<path d="M341.356 385.847C339.304 385.847 337.635 384.178 337.635 382.126C337.635 380.075 339.304 378.405 341.356 378.405C343.408 378.405 345.077 380.075 345.077 382.126C345.077 384.178 343.408 385.847 341.356 385.847ZM341.356 380.454C340.433 380.454 339.683 381.204 339.683 382.126C339.683 383.049 340.433 383.799 341.356 383.799C342.278 383.799 343.028 383.049 343.028 382.126C343.028 381.204 342.278 380.454 341.356 380.454Z" fill="#1A1D5A"/>
<path d="M355.369 384.828C352.16 384.828 349.459 382.427 349.087 379.243C349.022 378.682 349.424 378.173 349.986 378.107C350.548 378.042 351.056 378.444 351.122 379.006C351.373 381.158 353.199 382.78 355.369 382.78C357.727 382.78 359.646 380.862 359.646 378.503C359.646 376.319 358.012 374.492 355.845 374.253C355.283 374.191 354.877 373.685 354.939 373.123C355.001 372.56 355.508 372.156 356.069 372.217C359.276 372.571 361.694 375.273 361.694 378.503C361.694 381.991 358.857 384.828 355.369 384.828Z" fill="#1A1D5A"/>
<path d="M354.055 368.035C353.786 368.035 353.521 367.926 353.331 367.735C353.14 367.545 353.031 367.281 353.031 367.011C353.031 366.741 353.14 366.478 353.331 366.287C353.521 366.097 353.786 365.987 354.055 365.987C354.324 365.987 354.588 366.097 354.779 366.287C354.969 366.478 355.079 366.742 355.079 367.011C355.079 367.281 354.969 367.545 354.779 367.735C354.588 367.926 354.324 368.035 354.055 368.035Z" fill="#1A1D5A"/>
<path d="M348.217 388.837C347.948 388.837 347.684 388.728 347.493 388.537C347.303 388.347 347.193 388.082 347.193 387.813C347.193 387.544 347.303 387.28 347.493 387.089C347.684 386.899 347.947 386.789 348.217 386.789C348.487 386.789 348.751 386.898 348.941 387.089C349.132 387.28 349.242 387.544 349.242 387.813C349.242 388.082 349.132 388.347 348.941 388.537C348.751 388.728 348.487 388.837 348.217 388.837Z" fill="#1A1D5A"/>
<path d="M336.713 376.664C336.443 376.664 336.18 376.554 335.989 376.363C335.798 376.173 335.689 375.909 335.689 375.639C335.689 375.369 335.798 375.106 335.989 374.915C336.179 374.724 336.443 374.615 336.713 374.615C336.983 374.615 337.247 374.724 337.438 374.915C337.628 375.106 337.738 375.37 337.738 375.639C337.738 375.909 337.628 376.172 337.438 376.363C337.247 376.554 336.983 376.664 336.713 376.664Z" fill="#1A1D5A"/>
<path d="M351.609 375.792C351.34 375.792 351.076 375.682 350.885 375.492C350.695 375.301 350.585 375.037 350.585 374.768C350.585 374.497 350.695 374.234 350.885 374.043C351.076 373.852 351.34 373.744 351.609 373.744C351.879 373.744 352.143 373.852 352.333 374.043C352.524 374.234 352.633 374.498 352.633 374.768C352.633 375.037 352.524 375.3 352.333 375.492C352.143 375.682 351.879 375.792 351.609 375.792Z" fill="#1A1D5A"/>
</g>
<g clip-path="url(#clip1)">
<path d="M492.522 296.435H487.913C486.219 296.435 484.841 295.057 484.841 293.362C484.841 291.933 485.821 290.729 487.145 290.387V289.113C487.145 288.821 486.933 288.569 486.642 288.512C484.189 288.035 481.891 287.084 479.814 285.684C479.565 285.517 479.235 285.545 479.029 285.751L478.12 286.66C478.754 287.764 478.674 289.186 477.84 290.181C477.286 290.843 476.475 291.244 475.617 291.282C474.758 291.319 473.916 290.993 473.308 290.385L470.05 287.127C469.469 286.546 469.15 285.775 469.15 284.954C469.15 284.133 469.469 283.362 470.05 282.782C470.63 282.201 471.401 281.882 472.222 281.882C472.78 281.882 473.316 282.029 473.783 282.306L474.684 281.406C474.89 281.2 474.918 280.869 474.751 280.621C473.351 278.543 472.399 276.246 471.923 273.793C471.866 273.501 471.613 273.29 471.322 273.29H470.049C469.91 273.834 469.622 274.331 469.206 274.733C468.6 275.317 467.804 275.621 466.961 275.592C465.301 275.533 464 274.163 464 272.473V267.913C464 267.073 464.333 266.289 464.937 265.705C465.541 265.121 466.338 264.814 467.177 264.843C468.535 264.888 469.684 265.861 470.035 267.145H471.322C471.613 267.145 471.866 266.933 471.923 266.642C472.399 264.189 473.351 261.891 474.75 259.814C474.918 259.565 474.89 259.235 474.684 259.029L473.783 258.128C473.315 258.405 472.78 258.553 472.222 258.553C471.401 258.553 470.63 258.233 470.049 257.653C468.852 256.455 468.852 254.506 470.049 253.308L473.308 250.049C474.506 248.851 476.455 248.852 477.653 250.049C478.233 250.63 478.553 251.401 478.553 252.222C478.553 252.78 478.405 253.315 478.128 253.783L479.029 254.684C479.235 254.89 479.565 254.918 479.814 254.75C481.891 253.351 484.189 252.399 486.641 251.923C486.933 251.866 487.145 251.613 487.145 251.322V250.048C485.821 249.706 484.841 248.501 484.841 247.072C484.841 245.378 486.219 244 487.913 244H492.522C494.216 244 495.594 245.378 495.594 247.072C495.594 248.501 494.613 249.706 493.29 250.048V251.322C493.29 251.613 493.501 251.866 493.793 251.923C496.246 252.399 498.543 253.351 500.621 254.75C500.869 254.918 501.2 254.89 501.406 254.684L502.307 253.783C501.613 252.605 501.771 251.06 502.782 250.049C503.979 248.852 505.929 248.851 507.127 250.049L510.385 253.308C511.583 254.506 511.583 256.455 510.385 257.653C509.805 258.233 509.033 258.553 508.213 258.553C507.655 258.553 507.119 258.405 506.652 258.128L505.751 259.029C505.545 259.235 505.517 259.565 505.684 259.814C507.084 261.891 508.035 264.189 508.512 266.641C508.569 266.933 508.821 267.145 509.113 267.145H510.398C510.73 265.916 511.793 264.967 513.086 264.853H513.086C513.947 264.776 514.803 265.066 515.437 265.647C516.071 266.227 516.435 267.053 516.435 267.913V272.522C516.435 273.381 516.071 274.207 515.437 274.788C514.803 275.368 513.946 275.658 513.086 275.582C511.793 275.468 510.73 274.519 510.398 273.29H509.113C508.821 273.29 508.569 273.501 508.512 273.793C508.035 276.246 507.084 278.543 505.684 280.621C505.517 280.869 505.545 281.2 505.751 281.406L506.652 282.306C507.119 282.029 507.655 281.882 508.213 281.882C509.033 281.882 509.805 282.201 510.385 282.782C510.966 283.362 511.285 284.133 511.285 284.954C511.285 285.775 510.966 286.546 510.385 287.127L507.127 290.385C506.519 290.993 505.678 291.32 504.818 291.282C503.96 291.244 503.149 290.843 502.595 290.181C501.761 289.186 501.681 287.764 502.315 286.66L501.406 285.751C501.2 285.545 500.87 285.517 500.621 285.684C498.543 287.084 496.246 288.035 493.793 288.512C493.502 288.569 493.29 288.821 493.29 289.113V290.387C494.614 290.729 495.594 291.933 495.594 293.362C495.594 295.057 494.216 296.435 492.522 296.435ZM479.46 283.528C479.98 283.528 480.503 283.678 480.959 283.986C482.807 285.231 484.85 286.077 487.032 286.501C488.284 286.745 489.193 287.843 489.193 289.113V291.058C489.193 291.764 488.619 292.338 487.913 292.338C487.348 292.338 486.889 292.798 486.889 293.362C486.889 293.927 487.348 294.387 487.913 294.387H492.522C493.086 294.387 493.546 293.927 493.546 293.362C493.546 292.798 493.086 292.338 492.522 292.338C491.816 292.338 491.242 291.764 491.242 291.058V289.113C491.242 287.843 492.15 286.745 493.403 286.501C495.584 286.077 497.628 285.231 499.476 283.986C500.536 283.272 501.957 283.405 502.854 284.302L504.263 285.711C504.744 286.192 504.744 286.975 504.263 287.456C503.872 287.846 503.83 288.466 504.165 288.866C504.354 289.092 504.618 289.223 504.908 289.236C505.201 289.248 505.473 289.143 505.678 288.937L508.937 285.678C509.131 285.485 509.237 285.228 509.237 284.954C509.237 284.681 509.13 284.423 508.937 284.23C508.538 283.831 507.888 283.831 507.489 284.23L507.456 284.263C506.975 284.744 506.192 284.744 505.711 284.263L504.302 282.854C503.405 281.957 503.272 280.536 503.986 279.476C505.231 277.628 506.077 275.585 506.501 273.403C506.745 272.15 507.843 271.242 509.113 271.242H511.104C511.785 271.242 512.338 271.795 512.338 272.475C512.338 273.027 512.746 273.496 513.266 273.542C513.559 273.567 513.839 273.474 514.054 273.277C514.268 273.081 514.386 272.812 514.386 272.522V267.913C514.386 267.622 514.268 267.354 514.054 267.157C513.839 266.961 513.558 266.867 513.266 266.893C512.746 266.939 512.338 267.407 512.338 267.959C512.338 268.64 511.785 269.193 511.104 269.193H509.113C507.843 269.193 506.745 268.284 506.501 267.032C506.077 264.85 505.231 262.807 503.986 260.959C503.272 259.899 503.405 258.478 504.302 257.581L505.678 256.205C506.178 255.706 506.99 255.706 507.489 256.205C507.888 256.604 508.538 256.604 508.937 256.205C509.336 255.806 509.336 255.156 508.937 254.756L505.678 251.498C505.279 251.099 504.63 251.098 504.23 251.498C503.831 251.897 503.831 252.547 504.23 252.946C504.729 253.445 504.729 254.257 504.23 254.757L502.854 256.133C501.957 257.03 500.536 257.163 499.476 256.449C497.628 255.204 495.585 254.357 493.403 253.933C492.15 253.69 491.242 252.592 491.242 251.322V249.377C491.242 248.671 491.816 248.096 492.522 248.096C493.086 248.096 493.546 247.637 493.546 247.072C493.546 246.508 493.086 246.048 492.522 246.048H487.913C487.348 246.048 486.889 246.508 486.889 247.072C486.889 247.637 487.348 248.096 487.913 248.096C488.619 248.096 489.193 248.671 489.193 249.377V251.322C489.193 252.592 488.284 253.69 487.032 253.933C484.85 254.357 482.807 255.204 480.959 256.449C479.899 257.163 478.478 257.03 477.581 256.132L476.205 254.757C475.963 254.515 475.83 254.193 475.83 253.851C475.83 253.509 475.963 253.188 476.205 252.946C476.604 252.547 476.604 251.897 476.205 251.498C475.806 251.098 475.156 251.098 474.757 251.498L471.498 254.756C471.098 255.156 471.098 255.805 471.498 256.205C471.691 256.398 471.948 256.505 472.222 256.505C472.495 256.505 472.753 256.398 472.946 256.205C473.445 255.706 474.257 255.706 474.757 256.205L476.132 257.581C477.03 258.478 477.163 259.899 476.449 260.958C475.204 262.807 474.357 264.85 473.933 267.032C473.69 268.284 472.592 269.193 471.322 269.193H469.323C468.647 269.193 468.096 268.643 468.096 267.967C468.096 267.391 467.653 266.908 467.109 266.89C466.828 266.879 466.562 266.982 466.361 267.177C466.159 267.372 466.048 267.633 466.048 267.913V272.473C466.048 273.045 466.49 273.526 467.034 273.545C467.316 273.556 467.582 273.454 467.783 273.259C467.985 273.064 468.096 272.802 468.096 272.522C468.096 271.816 468.671 271.242 469.377 271.242H471.322C472.592 271.242 473.69 272.15 473.933 273.403C474.357 275.584 475.204 277.628 476.449 279.476C477.163 280.536 477.03 281.957 476.132 282.854L474.724 284.263C474.243 284.744 473.46 284.744 472.979 284.263L472.946 284.23C472.753 284.036 472.496 283.93 472.222 283.93C471.948 283.93 471.691 284.037 471.498 284.23C471.304 284.423 471.198 284.68 471.198 284.954C471.198 285.228 471.304 285.485 471.498 285.678L474.757 288.937C474.962 289.142 475.236 289.249 475.527 289.236C475.817 289.223 476.081 289.092 476.27 288.866C476.605 288.466 476.562 287.846 476.172 287.456C475.691 286.975 475.691 286.192 476.172 285.711L477.581 284.302C478.092 283.791 478.773 283.528 479.46 283.528Z" fill="#1A1D5A"/>
<path d="M486.262 265.904C483.89 265.904 481.96 263.974 481.96 261.602C481.96 259.231 483.89 257.301 486.262 257.301C488.633 257.301 490.563 259.231 490.563 261.602C490.563 263.974 488.633 265.904 486.262 265.904ZM486.262 259.349C485.019 259.349 484.009 260.36 484.009 261.602C484.009 262.845 485.019 263.855 486.262 263.855C487.504 263.855 488.515 262.845 488.515 261.602C488.515 260.36 487.504 259.349 486.262 259.349Z" fill="#1A1D5A"/>
<path d="M483.356 280.439C481.304 280.439 479.635 278.769 479.635 276.718C479.635 274.666 481.304 272.997 483.356 272.997C485.408 272.997 487.077 274.666 487.077 276.718C487.077 278.769 485.408 280.439 483.356 280.439ZM483.356 275.045C482.433 275.045 481.683 275.795 481.683 276.718C481.683 277.64 482.433 278.39 483.356 278.39C484.278 278.39 485.028 277.64 485.028 276.718C485.028 275.795 484.278 275.045 483.356 275.045Z" fill="#1A1D5A"/>
<path d="M497.369 279.42C494.16 279.42 491.459 277.019 491.087 273.835C491.022 273.273 491.424 272.764 491.986 272.699C492.548 272.633 493.056 273.035 493.122 273.597C493.373 275.749 495.199 277.371 497.369 277.371C499.727 277.371 501.646 275.453 501.646 273.095C501.646 270.911 500.012 269.083 497.845 268.844C497.283 268.782 496.877 268.276 496.939 267.714C497.001 267.152 497.508 266.747 498.069 266.808C501.276 267.162 503.694 269.865 503.694 273.095C503.694 276.582 500.857 279.42 497.369 279.42Z" fill="#1A1D5A"/>
<path d="M496.055 262.627C495.786 262.627 495.521 262.517 495.331 262.327C495.14 262.136 495.031 261.872 495.031 261.603C495.031 261.332 495.14 261.069 495.331 260.878C495.521 260.688 495.786 260.578 496.055 260.578C496.324 260.578 496.588 260.688 496.779 260.878C496.969 261.069 497.079 261.333 497.079 261.603C497.079 261.872 496.969 262.136 496.779 262.327C496.588 262.517 496.324 262.627 496.055 262.627Z" fill="#1A1D5A"/>
<path d="M490.217 283.429C489.948 283.429 489.684 283.319 489.493 283.128C489.303 282.938 489.193 282.674 489.193 282.404C489.193 282.135 489.303 281.871 489.493 281.68C489.684 281.49 489.947 281.38 490.217 281.38C490.487 281.38 490.751 281.49 490.941 281.68C491.132 281.871 491.242 282.135 491.242 282.404C491.242 282.674 491.132 282.938 490.941 283.128C490.751 283.319 490.487 283.429 490.217 283.429Z" fill="#1A1D5A"/>
<path d="M478.714 271.255C478.443 271.255 478.18 271.145 477.989 270.955C477.798 270.764 477.689 270.5 477.689 270.231C477.689 269.96 477.798 269.697 477.989 269.507C478.179 269.315 478.443 269.207 478.714 269.207C478.983 269.207 479.247 269.315 479.438 269.507C479.628 269.697 479.738 269.961 479.738 270.231C479.738 270.5 479.628 270.763 479.438 270.955C479.247 271.145 478.983 271.255 478.714 271.255Z" fill="#1A1D5A"/>
<path d="M493.609 270.383C493.34 270.383 493.076 270.274 492.885 270.083C492.695 269.893 492.585 269.629 492.585 269.359C492.585 269.089 492.695 268.826 492.885 268.634C493.076 268.444 493.34 268.335 493.609 268.335C493.879 268.335 494.143 268.444 494.333 268.634C494.524 268.826 494.633 269.089 494.633 269.359C494.633 269.629 494.524 269.892 494.333 270.083C494.143 270.274 493.879 270.383 493.609 270.383Z" fill="#1A1D5A"/>
</g>
<g clip-path="url(#clip2)">
<path d="M440.522 52.4348H435.913C434.219 52.4348 432.841 51.0565 432.841 49.3624C432.841 47.9335 433.821 46.7292 435.145 46.3873V45.1127C435.145 44.8213 434.933 44.5689 434.642 44.5121C432.189 44.0354 429.891 43.084 427.814 41.6843C427.565 41.5166 427.235 41.5446 427.029 41.7507L426.12 42.6598C426.754 43.7636 426.674 45.1857 425.84 46.1812C425.286 46.8431 424.475 47.2444 423.617 47.2822C422.758 47.3191 421.916 46.9931 421.308 46.3853L418.05 43.1266C417.469 42.5463 417.15 41.7749 417.15 40.9541C417.15 40.1334 417.469 39.3618 418.05 38.7816C418.63 38.2013 419.401 37.8818 420.222 37.8818C420.78 37.8818 421.316 38.0295 421.783 38.3065L422.684 37.4057C422.89 37.1996 422.918 36.8694 422.751 36.6207C421.351 34.5434 420.399 32.2463 419.923 29.7933C419.866 29.5014 419.613 29.2897 419.322 29.2897H418.049C417.91 29.8343 417.622 30.3309 417.206 30.7325C416.6 31.3169 415.804 31.6205 414.961 31.5922C413.301 31.533 412 30.1627 412 28.4726V23.9131C412 23.073 412.333 22.2887 412.937 21.7045C413.541 21.1206 414.338 20.8145 415.177 20.8426C416.535 20.8879 417.684 21.8613 418.035 23.145H419.322C419.613 23.145 419.866 22.9334 419.923 22.6416C420.399 20.1885 421.351 17.8914 422.75 15.8141C422.918 15.5653 422.89 15.2352 422.684 15.0291L421.783 14.1283C421.315 14.4053 420.78 14.553 420.222 14.553C419.401 14.553 418.63 14.2335 418.049 13.6532C416.852 12.4553 416.852 10.5061 418.049 9.3081L421.308 6.04946C422.506 4.85145 424.455 4.85165 425.653 6.04946C426.233 6.62983 426.553 7.40129 426.553 8.22202C426.553 8.77996 426.405 9.31537 426.128 9.78329L427.029 10.6841C427.235 10.8904 427.565 10.9181 427.814 10.7505C429.891 9.3508 432.189 8.3994 434.641 7.92267C434.933 7.86593 435.145 7.61339 435.145 7.32213V6.04751C433.821 5.70556 432.841 4.5013 432.841 3.07235C432.841 1.37826 434.219 0 435.913 0H440.522C442.216 0 443.594 1.37826 443.594 3.07235C443.594 4.5013 442.613 5.70556 441.29 6.04751V7.32213C441.29 7.61349 441.501 7.86604 441.793 7.92267C444.246 8.3994 446.543 9.3508 448.621 10.7505C448.869 10.9181 449.2 10.8903 449.406 10.6841L450.307 9.78257C449.613 8.60453 449.771 7.05975 450.782 6.04946C451.979 4.85165 453.929 4.85145 455.127 6.04946L458.385 9.3081C459.583 10.506 459.583 12.4552 458.385 13.6532C457.805 14.2335 457.033 14.553 456.213 14.553C455.655 14.553 455.119 14.4053 454.652 14.1283L453.751 15.0291C453.545 15.2352 453.517 15.5653 453.684 15.8141C455.084 17.8914 456.035 20.1885 456.512 22.6415C456.569 22.9334 456.821 23.145 457.113 23.145H458.398C458.73 21.916 459.793 20.9672 461.086 20.853H461.086C461.947 20.7763 462.803 21.0664 463.437 21.6468C464.071 22.2274 464.435 23.0535 464.435 23.9131V28.5217C464.435 29.3813 464.071 30.2074 463.437 30.788C462.803 31.3684 461.946 31.6576 461.086 31.5818C459.793 31.4676 458.73 30.5188 458.398 29.2897H457.113C456.821 29.2897 456.569 29.5014 456.512 29.7932C456.035 32.2463 455.084 34.5434 453.684 36.6207C453.517 36.8694 453.545 37.1996 453.751 37.4057L454.652 38.3065C455.119 38.0295 455.655 37.8818 456.213 37.8818C457.033 37.8818 457.805 38.2013 458.385 38.7816C458.966 39.3618 459.285 40.1334 459.285 40.9541C459.285 41.7749 458.966 42.5463 458.385 43.1266L455.127 46.3853C454.519 46.9932 453.678 47.3201 452.818 47.2822C451.96 47.2444 451.149 46.8431 450.595 46.1813C449.761 45.1857 449.681 43.7637 450.315 42.6598L449.406 41.7507C449.2 41.5445 448.87 41.5166 448.621 41.6843C446.543 43.084 444.246 44.0354 441.793 44.5121C441.502 44.5689 441.29 44.8214 441.29 45.1127V46.3873C442.614 46.7292 443.594 47.9335 443.594 49.3624C443.594 51.0565 442.216 52.4348 440.522 52.4348ZM427.46 39.5278C427.98 39.5278 428.503 39.6783 428.959 39.9857C430.807 41.2309 432.85 42.0775 435.032 42.5015C436.284 42.7447 437.193 43.8429 437.193 45.1127V47.0582C437.193 47.7641 436.619 48.3383 435.913 48.3383C435.348 48.3383 434.889 48.7977 434.889 49.3624C434.889 49.9271 435.348 50.3866 435.913 50.3866H440.522C441.086 50.3866 441.546 49.9271 441.546 49.3624C441.546 48.7977 441.086 48.3383 440.522 48.3383C439.816 48.3383 439.242 47.7641 439.242 47.0582V45.1127C439.242 43.843 440.15 42.7447 441.403 42.5015C443.584 42.0774 445.628 41.2309 447.476 39.9857C448.536 39.2717 449.957 39.4047 450.854 40.3024L452.263 41.7111C452.744 42.1921 452.744 42.9749 452.263 43.4559C451.872 43.8462 451.83 44.4655 452.165 44.8662C452.354 45.0918 452.618 45.2232 452.908 45.236C453.201 45.248 453.473 45.1427 453.678 44.937L456.937 41.6783C457.131 41.4848 457.237 41.2278 457.237 40.9542C457.237 40.6806 457.13 40.4234 456.937 40.2301C456.538 39.8308 455.888 39.831 455.489 40.2301L455.456 40.2629C454.975 40.7439 454.192 40.744 453.711 40.2629L452.302 38.8542C451.405 37.9566 451.272 36.536 451.986 35.4763C453.231 33.6281 454.077 31.5846 454.501 29.4026C454.745 28.1504 455.843 27.2415 457.113 27.2415H459.104C459.785 27.2415 460.338 27.795 460.338 28.4755C460.338 29.0274 460.746 29.4956 461.266 29.5416C461.559 29.5672 461.839 29.4736 462.054 29.2774C462.268 29.0808 462.386 28.8124 462.386 28.5217V23.9131C462.386 23.6224 462.268 23.354 462.054 23.1574C461.839 22.961 461.558 22.8671 461.266 22.8932C460.746 22.9392 460.338 23.4074 460.338 23.9593C460.338 24.6396 459.785 25.1933 459.104 25.1933H457.113C455.843 25.1933 454.745 24.2844 454.501 23.0322C454.077 20.8503 453.231 18.8068 451.986 16.9586C451.272 15.8988 451.405 14.4781 452.302 13.5807L453.678 12.2048C454.178 11.7057 454.99 11.7058 455.489 12.2048C455.888 12.604 456.538 12.6042 456.937 12.2048C457.336 11.8055 457.336 11.1558 456.937 10.7564L453.678 7.49776C453.279 7.09867 452.63 7.09826 452.23 7.49776C451.831 7.89697 451.831 8.54677 452.23 8.94607C452.729 9.44523 452.729 10.2575 452.23 10.7566L450.854 12.1325C449.957 13.03 448.536 13.1632 447.476 12.4492C445.628 11.2039 443.585 10.3574 441.403 9.93342C440.15 9.69009 439.242 8.59193 439.242 7.32213V5.37661C439.242 4.67069 439.816 4.09647 440.522 4.09647C441.086 4.09647 441.546 3.63705 441.546 3.07235C441.546 2.50765 441.086 2.04823 440.522 2.04823H435.913C435.348 2.04823 434.889 2.50765 434.889 3.07235C434.889 3.63705 435.348 4.09647 435.913 4.09647C436.619 4.09647 437.193 4.67069 437.193 5.37661V7.32213C437.193 8.59183 436.284 9.69009 435.032 9.93332C432.85 10.3574 430.807 11.2038 428.959 12.4491C427.899 13.1631 426.478 13.03 425.581 12.1324L424.205 10.7565C423.963 10.5147 423.83 10.1932 423.83 9.85129C423.83 9.50913 423.963 9.18756 424.205 8.94576C424.604 8.54677 424.604 7.89697 424.205 7.49766C423.806 7.09815 423.156 7.09836 422.757 7.49766L419.498 10.7563C419.098 11.1556 419.098 11.8053 419.498 12.2047C419.691 12.3982 419.948 12.5047 420.222 12.5047C420.495 12.5047 420.753 12.3983 420.946 12.2048C421.445 11.7056 422.257 11.7057 422.757 12.2047L424.132 13.5806C425.03 14.4781 425.163 15.8988 424.449 16.9585C423.204 18.8067 422.357 20.8502 421.933 23.0322C421.69 24.2844 420.592 25.1933 419.322 25.1933H417.323C416.647 25.1933 416.096 24.6431 416.096 23.9668C416.096 23.391 415.653 22.9078 415.109 22.8896C414.828 22.8793 414.562 22.982 414.361 23.1769C414.159 23.3716 414.048 23.6331 414.048 23.9131V28.4726C414.048 29.0447 414.49 29.5258 415.034 29.5452C415.316 29.5555 415.582 29.4535 415.783 29.2588C415.985 29.0639 416.096 28.8021 416.096 28.5217C416.096 27.8157 416.671 27.2415 417.377 27.2415H419.322C420.592 27.2415 421.69 28.1504 421.933 29.4026C422.357 31.5845 423.204 33.628 424.449 35.4762C425.163 36.536 425.03 37.9566 424.132 38.8541L422.724 40.2627C422.243 40.7439 421.46 40.7438 420.979 40.2627L420.946 40.23C420.753 40.0364 420.496 39.93 420.222 39.93C419.948 39.93 419.691 40.0365 419.498 40.23C419.304 40.4234 419.198 40.6805 419.198 40.9541C419.198 41.2277 419.304 41.4848 419.498 41.6782L422.757 44.9369C422.962 45.1425 423.236 45.2488 423.527 45.2359C423.817 45.2231 424.081 45.0917 424.27 44.8659C424.605 44.4655 424.562 43.8461 424.172 43.4558C423.691 42.9748 423.691 42.192 424.172 41.7109L425.581 40.3023C426.092 39.7911 426.773 39.5278 427.46 39.5278Z" fill="#1A1D5A"/>
<path d="M434.262 21.9036C431.89 21.9036 429.96 19.9741 429.96 17.6023C429.96 15.2306 431.89 13.301 434.262 13.301C436.633 13.301 438.563 15.2306 438.563 17.6023C438.563 19.9741 436.633 21.9036 434.262 21.9036ZM434.262 15.3493C433.019 15.3493 432.009 16.36 432.009 17.6023C432.009 18.8447 433.019 19.8554 434.262 19.8554C435.504 19.8554 436.515 18.8447 436.515 17.6023C436.515 16.36 435.504 15.3493 434.262 15.3493Z" fill="#1A1D5A"/>
<path d="M431.356 36.4386C429.304 36.4386 427.635 34.7694 427.635 32.7177C427.635 30.666 429.304 28.9966 431.356 28.9966C433.408 28.9966 435.077 30.666 435.077 32.7177C435.077 34.7694 433.408 36.4386 431.356 36.4386ZM431.356 31.0449C430.433 31.0449 429.683 31.7952 429.683 32.7177C429.683 33.64 430.433 34.3904 431.356 34.3904C432.278 34.3904 433.028 33.64 433.028 32.7177C433.028 31.7952 432.278 31.0449 431.356 31.0449Z" fill="#1A1D5A"/>
<path d="M445.369 35.4196C442.16 35.4196 439.459 33.0186 439.087 29.8346C439.022 29.2729 439.424 28.7643 439.986 28.6986C440.548 28.6335 441.056 29.0353 441.122 29.5972C441.373 31.7489 443.199 33.3714 445.369 33.3714C447.727 33.3714 449.646 31.4529 449.646 29.0948C449.646 26.9107 448.012 25.0833 445.845 24.8442C445.283 24.7822 444.877 24.2761 444.939 23.7139C445.001 23.1517 445.508 22.7474 446.069 22.8083C449.276 23.1622 451.694 25.8648 451.694 29.0948C451.694 32.5823 448.857 35.4196 445.369 35.4196Z" fill="#1A1D5A"/>
<path d="M444.055 18.6266C443.786 18.6266 443.521 18.5171 443.331 18.3266C443.14 18.1361 443.031 17.8719 443.031 17.6025C443.031 17.3321 443.14 17.069 443.331 16.8785C443.521 16.6881 443.786 16.5784 444.055 16.5784C444.324 16.5784 444.588 16.688 444.779 16.8785C444.969 17.069 445.079 17.3332 445.079 17.6025C445.079 17.8719 444.969 18.1361 444.779 18.3266C444.588 18.5171 444.324 18.6266 444.055 18.6266Z" fill="#1A1D5A"/>
<path d="M438.217 39.4285C437.948 39.4285 437.684 39.3189 437.493 39.1283C437.303 38.9379 437.193 38.6737 437.193 38.4044C437.193 38.135 437.303 37.8708 437.493 37.6803C437.684 37.4898 437.947 37.3803 438.217 37.3803C438.487 37.3803 438.751 37.4897 438.941 37.6803C439.132 37.8708 439.242 38.135 439.242 38.4044C439.242 38.6737 439.132 38.9379 438.941 39.1283C438.751 39.3189 438.487 39.4285 438.217 39.4285Z" fill="#1A1D5A"/>
<path d="M426.713 27.2548C426.443 27.2548 426.18 27.1453 425.989 26.9548C425.798 26.7643 425.689 26.5001 425.689 26.2307C425.689 25.9604 425.798 25.6972 425.989 25.5067C426.179 25.3152 426.443 25.2066 426.713 25.2066C426.983 25.2066 427.247 25.3152 427.438 25.5067C427.628 25.6972 427.738 25.9614 427.738 26.2307C427.738 26.5001 427.628 26.7633 427.438 26.9548C427.247 27.1453 426.983 27.2548 426.713 27.2548Z" fill="#1A1D5A"/>
<path d="M441.609 26.3833C441.34 26.3833 441.076 26.2737 440.885 26.0831C440.695 25.8927 440.585 25.6285 440.585 25.3592C440.585 25.0887 440.695 24.8256 440.885 24.6341C441.076 24.4436 441.34 24.3351 441.609 24.3351C441.879 24.3351 442.143 24.4436 442.333 24.6341C442.524 24.8256 442.633 25.0888 442.633 25.3592C442.633 25.6285 442.524 25.8916 442.333 26.0831C442.143 26.2737 441.879 26.3833 441.609 26.3833Z" fill="#1A1D5A"/>
</g>
<g clip-path="url(#clip3)">
<path d="M28.5217 63.4348H23.9131C22.219 63.4348 20.8408 62.0565 20.8408 60.3624C20.8408 58.9335 21.8214 57.7292 23.145 57.3873V56.1127C23.145 55.8213 22.9334 55.5689 22.6416 55.5121C20.1885 55.0354 17.8914 54.084 15.8141 52.6843C15.5655 52.5166 15.2354 52.5446 15.0291 52.7507L14.1199 53.6598C14.754 54.7636 14.674 56.1857 13.8401 57.1812C13.2857 57.8431 12.4754 58.2444 11.6168 58.2822C10.7582 58.3191 9.91632 57.9931 9.3084 57.3853L6.04956 54.1266C5.4693 53.5463 5.14977 52.7749 5.14977 51.9541C5.14977 51.1334 5.4693 50.3618 6.04956 49.7816C6.62993 49.2013 7.4014 48.8818 8.22212 48.8818C8.78016 48.8818 9.31557 49.0295 9.78339 49.3065L10.6842 48.4057C10.8904 48.1996 10.9182 47.8694 10.7506 47.6207C9.3509 45.5434 8.3995 43.2463 7.92277 40.7933C7.86604 40.5014 7.61349 40.2897 7.32223 40.2897H6.04874C5.90967 40.8343 5.62189 41.3309 5.20579 41.7325C4.60033 42.3169 3.80398 42.6205 2.96123 42.5922C1.30073 42.533 0 41.1627 0 39.4726V34.9131C0 34.073 0.332633 33.2887 0.936657 32.7045C1.54068 32.1206 2.33775 31.8145 3.17681 31.8426C4.5354 31.8879 5.68364 32.8613 6.03451 34.145H7.32213C7.61349 34.145 7.86604 33.9334 7.92267 33.6416C8.3994 31.1885 9.3508 28.8914 10.7505 26.8141C10.9181 26.5653 10.8902 26.2352 10.6841 26.0291L9.78329 25.1283C9.31547 25.4053 8.78006 25.553 8.22202 25.553C7.40129 25.553 6.62983 25.2335 6.04946 24.6532C4.85155 23.4553 4.85155 21.5061 6.04946 20.3081L9.3082 17.0495C10.5061 15.8514 12.4552 15.8517 13.6532 17.0495C14.2335 17.6298 14.553 18.4013 14.553 19.222C14.553 19.78 14.4053 20.3154 14.1283 20.7833L15.0291 21.6841C15.2354 21.8904 15.5653 21.9181 15.814 21.7505C17.8914 20.3508 20.1885 19.3994 22.6415 18.9227C22.9334 18.8659 23.145 18.6134 23.145 18.3221V17.0475C21.8214 16.7056 20.8408 15.5013 20.8408 14.0724C20.8408 12.3783 22.219 11 23.9131 11H28.5217C30.2158 11 31.594 12.3783 31.594 14.0724C31.594 15.5013 30.6134 16.7056 29.2897 17.0475V18.3221C29.2897 18.6135 29.5014 18.866 29.7932 18.9227C32.2463 19.3994 34.5434 20.3508 36.6207 21.7505C36.8693 21.9181 37.1995 21.8903 37.4057 21.6841L38.3073 20.7826C37.6131 19.6045 37.7713 18.0598 38.7816 17.0495C39.9794 15.8517 41.9286 15.8514 43.1266 17.0495L46.3853 20.3081C47.5832 21.506 47.5832 23.4552 46.3853 24.6532C45.805 25.2335 45.0335 25.553 44.2128 25.553C43.6548 25.553 43.1194 25.4053 42.6515 25.1283L41.7507 26.0291C41.5445 26.2352 41.5167 26.5653 41.6843 26.8141C43.084 28.8914 44.0354 31.1885 44.5121 33.6415C44.5689 33.9334 44.8214 34.145 45.1127 34.145H46.3981C46.7303 32.916 47.7926 31.9672 49.0862 31.853H49.0863C49.9466 31.7763 50.8031 32.0664 51.4369 32.6468C52.071 33.2274 52.4348 34.0535 52.4348 34.9131V39.5217C52.4348 40.3813 52.071 41.2074 51.4369 41.788C50.8031 42.3684 49.9456 42.6576 49.0863 42.5818C47.7926 42.4676 46.7303 41.5188 46.3981 40.2897H45.1127C44.8213 40.2897 44.5689 40.5014 44.5121 40.7932C44.0354 43.2463 43.084 45.5434 41.6843 47.6207C41.5167 47.8694 41.5446 48.1996 41.7507 48.4057L42.6515 49.3065C43.1194 49.0295 43.6548 48.8818 44.2128 48.8818C45.0335 48.8818 45.805 49.2013 46.3853 49.7816C46.9656 50.3618 47.2851 51.1334 47.2851 51.9541C47.2851 52.7749 46.9656 53.5463 46.3852 54.1266L43.1266 57.3853C42.5187 57.9932 41.6778 58.3201 40.8181 58.2822C39.9595 58.2444 39.1492 57.8431 38.5948 57.1813C37.7609 56.1857 37.6806 54.7637 38.315 53.6598L37.4058 52.7507C37.1996 52.5445 36.8695 52.5166 36.6209 52.6843C34.5435 54.084 32.2464 55.0354 29.7934 55.5121C29.5015 55.5689 29.2898 55.8214 29.2898 56.1127V57.3873C30.6135 57.7292 31.5941 58.9335 31.5941 60.3624C31.594 62.0565 30.2158 63.4348 28.5217 63.4348ZM15.4601 50.5278C15.9795 50.5278 16.5025 50.6783 16.9588 50.9857C18.8069 52.2309 20.8504 53.0775 23.0324 53.5015C24.2844 53.7447 25.1933 54.8429 25.1933 56.1127V58.0582C25.1933 58.7641 24.6191 59.3383 23.9131 59.3383C23.3484 59.3383 22.889 59.7977 22.889 60.3624C22.889 60.9271 23.3484 61.3866 23.9131 61.3866H28.5217C29.0864 61.3866 29.5458 60.9271 29.5458 60.3624C29.5458 59.7977 29.0864 59.3383 28.5217 59.3383C27.8157 59.3383 27.2415 58.7641 27.2415 58.0582V56.1127C27.2415 54.843 28.1504 53.7447 29.4026 53.5015C31.5845 53.0774 33.628 52.2309 35.4762 50.9857C36.5359 50.2717 37.9565 50.4047 38.8541 51.3024L40.2627 52.7111C40.7438 53.1921 40.7438 53.9749 40.2627 54.4559C39.8725 54.8462 39.8295 55.4655 40.1649 55.8662C40.3541 56.0918 40.6181 56.2232 40.9084 56.236C41.2005 56.248 41.4727 56.1427 41.6784 55.937L44.937 52.6783C45.1306 52.4848 45.237 52.2278 45.237 51.9542C45.237 51.6806 45.1305 51.4234 44.937 51.2301C44.5377 50.8308 43.8879 50.831 43.4887 51.2301L43.4559 51.2629C42.975 51.7439 42.1922 51.744 41.7111 51.2629L40.3024 49.8542C39.4048 48.9566 39.2717 47.536 39.9857 46.4763C41.2309 44.6281 42.0775 42.5846 42.5015 40.4026C42.7447 39.1504 43.8429 38.2415 45.1127 38.2415H47.1044C47.7847 38.2415 48.3383 38.795 48.3383 39.4755C48.3383 40.0274 48.7459 40.4956 49.2664 40.5416C49.5595 40.5672 49.8394 40.4736 50.0535 40.2774C50.2683 40.0808 50.3865 39.8124 50.3865 39.5217V34.9131C50.3865 34.6224 50.2683 34.354 50.0535 34.1574C49.8392 33.961 49.5581 33.8671 49.2664 33.8932C48.7459 33.9392 48.3383 34.4074 48.3383 34.9593C48.3383 35.6396 47.7848 36.1933 47.1044 36.1933H45.1127C43.843 36.1933 42.7447 35.2844 42.5015 34.0322C42.0774 31.8503 41.2309 29.8068 39.9857 27.9586C39.2716 26.8988 39.4048 25.4781 40.3024 24.5807L41.6783 23.2048C42.1775 22.7057 42.9896 22.7058 43.4888 23.2048C43.888 23.604 44.5378 23.6042 44.9371 23.2048C45.3364 22.8055 45.3364 22.1558 44.9371 21.7564L41.6784 18.4978C41.2794 18.0987 40.6296 18.0983 40.2301 18.4978C39.8308 18.897 39.8308 19.5468 40.2301 19.9461C40.7292 20.4452 40.7292 21.2575 40.2301 21.7566L38.8542 23.1325C37.9565 24.03 36.536 24.1632 35.4762 23.4492C33.6281 22.2039 31.5846 21.3574 29.4026 20.9334C28.1504 20.6901 27.2415 19.5919 27.2415 18.3221V16.3766C27.2415 15.6707 27.8157 15.0965 28.5217 15.0965C29.0864 15.0965 29.5458 14.637 29.5458 14.0724C29.5458 13.5077 29.0864 13.0482 28.5217 13.0482H23.9131C23.3484 13.0482 22.889 13.5077 22.889 14.0724C22.889 14.637 23.3484 15.0965 23.9131 15.0965C24.6191 15.0965 25.1933 15.6707 25.1933 16.3766V18.3221C25.1933 19.5918 24.2844 20.6901 23.0322 20.9333C20.8503 21.3574 18.8068 22.2038 16.9586 23.4491C15.8989 24.1631 14.4782 24.03 13.5807 23.1324L12.2048 21.7565C11.9631 21.5147 11.8299 21.1932 11.8299 20.8513C11.8299 20.5091 11.9632 20.1876 12.2052 19.9458C12.6042 19.5468 12.6042 18.897 12.2048 18.4977C11.8055 18.0982 11.1557 18.0984 10.7565 18.4977L7.49776 21.7563C7.09846 22.1556 7.09846 22.8053 7.49776 23.2047C7.69122 23.3982 7.94838 23.5047 8.22192 23.5047C8.49546 23.5047 8.75261 23.3983 8.94597 23.2048C9.44502 22.7056 10.2572 22.7057 10.7565 23.2047L12.1324 24.5806C13.0299 25.4781 13.1631 26.8988 12.4491 27.9585C11.2038 29.8067 10.3573 31.8502 9.93332 34.0322C9.69009 35.2844 8.59193 36.1933 7.32213 36.1933H5.32295C4.64662 36.1933 4.09647 35.6431 4.09647 34.9668C4.09647 34.391 3.65323 33.9078 3.1085 33.8896C2.8282 33.8793 2.56173 33.982 2.36059 34.1769C2.15915 34.3716 2.04823 34.6331 2.04823 34.9131V39.4726C2.04823 40.0447 2.49045 40.5258 3.03405 40.5452C3.31619 40.5555 3.58164 40.4535 3.78329 40.2588C3.98525 40.0639 4.09647 39.8021 4.09647 39.5217C4.09647 38.8157 4.67069 38.2415 5.37661 38.2415H7.32213C8.59183 38.2415 9.69009 39.1504 9.93332 40.4026C10.3574 42.5845 11.2038 44.628 12.4491 46.4762C13.1632 47.536 13.0299 48.9566 12.1324 49.8541L10.7237 51.2627C10.2427 51.7439 9.45987 51.7438 8.97884 51.2627L8.94607 51.23C8.75261 51.0364 8.49556 50.93 8.22202 50.93C7.94848 50.93 7.69122 51.0365 7.49787 51.23C7.30441 51.4234 7.1979 51.6805 7.1979 51.9541C7.1979 52.2277 7.30431 52.4848 7.49776 52.6782L10.7566 55.9369C10.9622 56.1425 11.2363 56.2488 11.5265 56.2359C11.8168 56.2231 12.0808 56.0917 12.2699 55.8659C12.6053 55.4655 12.5624 54.8461 12.1722 54.4558C11.6911 53.9748 11.6911 53.192 12.1721 52.7109L13.5808 51.3023C14.092 50.7911 14.7729 50.5278 15.4601 50.5278Z" fill="#1A1D5A"/>
<path d="M22.2616 32.9036C19.8899 32.9036 17.9604 30.9741 17.9604 28.6023C17.9604 26.2306 19.8899 24.301 22.2616 24.301C24.6334 24.301 26.5629 26.2306 26.5629 28.6023C26.5629 30.9741 24.6334 32.9036 22.2616 32.9036ZM22.2616 26.3493C21.0193 26.3493 20.0086 27.36 20.0086 28.6023C20.0086 29.8447 21.0193 30.8554 22.2616 30.8554C23.504 30.8554 24.5147 29.8447 24.5147 28.6023C24.5147 27.36 23.504 26.3493 22.2616 26.3493Z" fill="#1A1D5A"/>
<path d="M19.3558 47.4386C17.3041 47.4386 15.6349 45.7694 15.6349 43.7177C15.6349 41.666 17.3041 39.9966 19.3558 39.9966C21.4075 39.9966 23.0767 41.666 23.0767 43.7177C23.0767 45.7694 21.4075 47.4386 19.3558 47.4386ZM19.3558 42.0449C18.4335 42.0449 17.6831 42.7952 17.6831 43.7177C17.6831 44.64 18.4335 45.3904 19.3558 45.3904C20.2781 45.3904 21.0285 44.64 21.0285 43.7177C21.0285 42.7952 20.2781 42.0449 19.3558 42.0449Z" fill="#1A1D5A"/>
<path d="M33.3691 46.4196C30.1595 46.4196 27.4589 44.0186 27.0873 40.8346C27.0216 40.2729 27.424 39.7643 27.9857 39.6986C28.5477 39.6335 29.056 40.0353 29.1217 40.5972C29.3728 42.7489 31.1988 44.3714 33.3691 44.3714C35.7271 44.3714 37.6457 42.4529 37.6457 40.0948C37.6457 37.9107 36.0116 36.0833 33.8447 35.8442C33.2826 35.7822 32.877 35.2761 32.9391 34.7139C33.0012 34.1517 33.5078 33.7474 34.0693 33.8083C37.2759 34.1622 39.694 36.8648 39.694 40.0948C39.694 43.5823 36.8566 46.4196 33.3691 46.4196Z" fill="#1A1D5A"/>
<path d="M32.0549 29.6266C31.7855 29.6266 31.5213 29.5171 31.3308 29.3266C31.1403 29.1361 31.0307 28.8719 31.0307 28.6025C31.0307 28.3321 31.1402 28.069 31.3308 27.8785C31.5213 27.6881 31.7855 27.5784 32.0549 27.5784C32.3242 27.5784 32.5884 27.688 32.7788 27.8785C32.9693 28.069 33.079 28.3332 33.079 28.6025C33.079 28.8719 32.9694 29.1361 32.7788 29.3266C32.5884 29.5171 32.3242 29.6266 32.0549 29.6266Z" fill="#1A1D5A"/>
<path d="M26.2174 50.4285C25.9481 50.4285 25.6838 50.3189 25.4933 50.1283C25.3029 49.9379 25.1933 49.6737 25.1933 49.4044C25.1933 49.135 25.3028 48.8708 25.4933 48.6803C25.6838 48.4898 25.947 48.3803 26.2174 48.3803C26.4867 48.3803 26.751 48.4897 26.9413 48.6803C27.1318 48.8708 27.2415 49.135 27.2415 49.4044C27.2415 49.6737 27.1319 49.9379 26.9413 50.1283C26.751 50.3189 26.4867 50.4285 26.2174 50.4285Z" fill="#1A1D5A"/>
<path d="M14.7135 38.2548C14.4431 38.2548 14.1799 38.1452 13.9894 37.9548C13.7979 37.7643 13.6894 37.5 13.6894 37.2307C13.6894 36.9603 13.7979 36.6971 13.9894 36.5067C14.179 36.3151 14.4432 36.2066 14.7135 36.2066C14.9828 36.2066 15.247 36.3151 15.4375 36.5067C15.6279 36.6971 15.7376 36.9614 15.7376 37.2307C15.7376 37.5 15.628 37.7632 15.4375 37.9548C15.247 38.1452 14.9828 38.2548 14.7135 38.2548Z" fill="#1A1D5A"/>
<path d="M29.6093 37.3833C29.3399 37.3833 29.0757 37.2737 28.8852 37.0831C28.6947 36.8928 28.5852 36.6285 28.5852 36.3592C28.5852 36.0887 28.6946 35.8256 28.8852 35.6341C29.0757 35.4436 29.3399 35.3351 29.6093 35.3351C29.8786 35.3351 30.1428 35.4436 30.3332 35.6341C30.5237 35.8256 30.6334 36.0888 30.6334 36.3592C30.6334 36.6285 30.5238 36.8916 30.3332 37.0831C30.1428 37.2737 29.8786 37.3833 29.6093 37.3833Z" fill="#1A1D5A"/>
</g>
<defs>
<clipPath id="clip0">
<rect width="52.4348" height="52.4348" fill="white" transform="translate(322 349.409)"/>
</clipPath>
<clipPath id="clip1">
<rect width="52.4348" height="52.4348" fill="white" transform="translate(464 244)"/>
</clipPath>
<clipPath id="clip2">
<rect width="52.4348" height="52.4348" fill="white" transform="translate(412)"/>
</clipPath>
<clipPath id="clip3">
<rect width="52.4348" height="52.4348" fill="white" transform="translate(0 11)"/>
</clipPath>
</defs>
</svg>
