<svg width="32" height="32" viewBox="0 0 32 32" fill="none" xmlns="http://www.w3.org/2000/svg">
<g clip-path="url(#clip0)">
<path d="M31.8628 26.111L27.7334 21.9816C27.5504 21.7986 27.2537 21.7986 27.0707 21.9816C26.8876 22.1646 26.8876 22.4614 27.0707 22.6444L27.5096 23.0833L23.8443 26.7486L22.3498 25.2541C21.7976 24.7018 21.034 24.4163 20.2548 24.4712L18.5884 24.5882C18.0797 24.6238 17.582 24.4377 17.2218 24.0775L12.5148 19.3705C12.2563 19.112 12.2563 18.6913 12.5148 18.4328C12.7733 18.1742 13.194 18.1742 13.4526 18.4328L15.6613 20.6414C15.6727 20.6528 15.6846 20.6636 15.6968 20.6736C15.7827 20.7436 15.8877 20.7787 15.9926 20.7787C16.0976 20.7787 16.2025 20.7436 16.2884 20.6736C16.3007 20.6636 16.3126 20.6528 16.324 20.6414C16.5071 20.4584 16.5071 20.1616 16.324 19.9786L11.5354 15.1901C11.3895 15.0441 11.3092 14.8502 11.3092 14.6438C11.3092 14.4375 11.3895 14.2435 11.5354 14.0976C11.6813 13.9517 11.8753 13.8713 12.0816 13.8713C12.2631 13.8713 12.4349 13.9335 12.5729 14.0477L17.4138 18.8887C17.5053 18.9802 17.6253 19.026 17.7452 19.026C17.8651 19.026 17.9851 18.9802 18.0766 18.8887C18.077 18.8883 18.0774 18.8878 18.0778 18.8873C18.0782 18.8869 18.0787 18.8865 18.0791 18.8861C18.2622 18.7031 18.2622 18.4064 18.0791 18.2234L11.2385 11.3879C10.9373 11.0867 10.9373 10.5966 11.2385 10.2955C11.3844 10.1495 11.5784 10.0692 11.7848 10.0692C11.9911 10.0692 12.1851 10.1496 12.3309 10.2955L19.1583 17.1444C19.2498 17.2359 19.3697 17.2816 19.4896 17.2816C19.6096 17.2816 19.7295 17.2359 19.821 17.1444C19.8228 17.1426 19.8244 17.1405 19.8262 17.1387C19.8281 17.1369 19.8301 17.1354 19.8319 17.1336C20.0149 16.9506 20.0149 16.6538 19.8319 16.4708L13.6576 10.2966C13.5743 10.1712 13.5294 10.0241 13.5294 9.87008C13.5294 9.66377 13.6098 9.46977 13.7557 9.32383C13.9016 9.17796 14.0956 9.09758 14.3019 9.09758C14.5083 9.09758 14.7022 9.17789 14.8481 9.32383L20.1751 14.6508C20.1811 14.6568 20.1876 14.6621 20.1938 14.6678L20.7808 15.4346C20.9381 15.6401 21.2322 15.6792 21.4378 15.522C21.6433 15.3646 21.6824 15.0705 21.5251 14.865L20.8998 14.048C20.7736 13.8359 20.7392 13.5886 20.803 13.3493C20.8686 13.1035 21.0282 12.902 21.2524 12.782C21.6766 12.5549 22.2057 12.6984 22.457 13.1085C22.4668 13.1243 25.1838 16.5616 25.1838 16.5616C25.5034 16.9657 25.6294 17.4875 25.5297 17.993L25.2954 19.1795C25.1823 19.7526 25.2609 20.3575 25.5168 20.8828C25.598 21.0494 25.7648 21.1463 25.9384 21.1463C26.0073 21.1463 26.0773 21.131 26.1434 21.0988C26.3761 20.9855 26.4728 20.705 26.3594 20.4723C26.1924 20.1296 26.1411 19.735 26.2149 19.3611L26.4492 18.1746C26.6022 17.3996 26.4089 16.5998 25.9189 15.9803L25.7899 15.817C26.1768 15.304 26.3698 14.6658 26.3241 14.0163L26.2079 12.3615C26.1726 11.8579 26.3571 11.3642 26.7141 11.0071L31.8624 5.85877C32.0455 5.67577 32.0455 5.37902 31.8624 5.19602L27.5649 0.898145C27.3819 0.715145 27.0852 0.715145 26.9022 0.898145L21.7726 6.02777C21.3608 6.43952 20.7739 6.61789 20.2027 6.50521L19.0244 6.27258C18.2539 6.12039 17.4588 6.31264 16.8428 6.79977C16.8364 6.80489 16.83 6.81014 16.8239 6.81558L15.9999 7.54089L15.176 6.81558C15.1698 6.81014 15.1635 6.80489 15.1571 6.79977C14.5411 6.31264 13.7459 6.12052 12.9754 6.27258L11.7972 6.50521C11.2259 6.61796 10.639 6.43946 10.2273 6.02777L5.09775 0.898145C4.91475 0.715145 4.618 0.715145 4.435 0.898145L0.137251 5.19583C-0.0458114 5.37883 -0.0458114 5.67558 0.137251 5.85858L5.28563 11.007C5.64269 11.364 5.82719 11.8576 5.79181 12.3613L5.67563 14.0161C5.62444 14.7452 5.873 15.4605 6.36025 16C5.873 16.5394 5.62444 17.2547 5.67563 17.9838L5.79181 19.6386C5.82719 20.1423 5.64269 20.636 5.28563 20.993L0.137251 26.1414C-0.0458114 26.3244 -0.0458114 26.6211 0.137251 26.8041L4.43494 31.1018C4.52644 31.1933 4.64638 31.2391 4.76631 31.2391C4.88625 31.2391 5.00619 31.1933 5.09769 31.1018L10.2273 25.9722C10.6391 25.5605 11.226 25.3818 11.7972 25.4948L12.9754 25.7274C13.7459 25.8796 14.5411 25.6873 15.1571 25.2002C15.1669 25.1925 15.1764 25.1843 15.1855 25.1758L16.1228 24.3041L16.5589 24.7403C17.1111 25.2926 17.8749 25.5783 18.6539 25.5232L20.3204 25.4062C20.8286 25.3705 21.3267 25.5566 21.6869 25.9169L23.5128 27.7427L23.5128 27.7428L26.8719 31.1018C26.9634 31.1933 27.0833 31.2391 27.2033 31.2391C27.3232 31.2391 27.4431 31.1933 27.5346 31.1018L31.8628 26.7737C32.0457 26.5907 32.0457 26.294 31.8628 26.111ZM27.2336 1.89233L30.8684 5.52721L28.1958 8.19983L24.5609 4.56496L27.2336 1.89233ZM17.4334 7.52777C17.8326 7.21627 18.3458 7.09389 18.8429 7.19208L20.0211 7.42471C20.8996 7.59827 21.8022 7.32364 22.4354 6.69046L23.8982 5.22764L27.5331 8.86252L26.0514 10.3441C25.5024 10.8932 25.2186 11.6524 25.2731 12.427L25.3893 14.0817C25.4129 14.4193 25.3373 14.752 25.1776 15.0424L23.2404 12.5931C22.7239 11.7798 21.6625 11.499 20.8102 11.9555C20.3756 12.1881 20.0505 12.5894 19.9111 13.0611L15.8083 8.95833L17.4334 7.52777ZM1.13144 5.52721L4.76631 1.89233L7.43894 4.56496L3.80406 8.19983L1.13144 5.52721ZM4.76631 30.1077L1.13144 26.4728L3.80406 23.8002L7.43894 27.4351L4.76631 30.1077ZM14.5618 24.4759C14.1632 24.7846 13.6524 24.9057 13.157 24.8078L11.9788 24.5752C11.1004 24.4018 10.1977 24.6763 9.5645 25.3095L8.10169 26.7723L4.46681 23.1374L5.94844 21.6558C6.4975 21.1067 6.78125 20.3475 6.72681 19.573L6.61063 17.9182C6.57525 17.4145 6.75975 16.9208 7.11681 16.5638L8.67163 15.009C8.85469 14.826 8.85469 14.5293 8.67163 14.3463C8.48863 14.1633 8.19188 14.1633 8.00888 14.3463L7.02225 15.3329C6.72788 14.987 6.57856 14.5388 6.61063 14.0819L6.72681 12.4271C6.78125 11.6525 6.4975 10.8934 5.94844 10.3443L4.46681 8.86271L8.10169 5.22783L9.5645 6.69064C10.1976 7.32383 11.0999 7.59827 11.9788 7.42489L13.1569 7.19227C13.6541 7.09408 14.1671 7.21646 14.5664 7.52789L15.2906 8.16546L15.0826 8.34864C14.8439 8.22589 14.5779 8.16046 14.3019 8.16046C13.8452 8.16046 13.4158 8.33833 13.0929 8.66121C12.8903 8.86377 12.7449 9.10827 12.6646 9.37508C12.4016 9.21664 12.0996 9.13202 11.7847 9.13202C11.328 9.13202 10.8986 9.30989 10.5757 9.63283C9.95494 10.2536 9.9125 11.2367 10.4478 11.9074L9.55281 12.8024C9.36975 12.9854 9.36975 13.2821 9.55281 13.4651C9.73581 13.6481 10.0326 13.6481 10.2156 13.4651L11.1028 12.578L11.5451 13.0203C11.2944 13.1028 11.0646 13.243 10.8725 13.4351C10.5496 13.758 10.3717 14.1874 10.3717 14.6441C10.3717 15.1008 10.5496 15.5301 10.8725 15.8531L12.4229 17.4035C12.2145 17.481 12.0191 17.603 11.8518 17.7702C11.2278 18.3942 11.2278 19.4096 11.8518 20.0336L15.4594 23.6411L14.5618 24.4759ZM27.2032 30.1077L24.5069 27.4114L28.1723 23.746L30.8686 26.4423L27.2032 30.1077Z" fill="white"/>
</g>
<defs>
<clipPath id="clip0">
<rect width="32" height="32" fill="white"/>
</clipPath>
</defs>
</svg>
