<svg width="135" height="135" viewBox="0 0 135 135" fill="none" xmlns="http://www.w3.org/2000/svg">
<g opacity="0.98" clip-path="url(#clip0)">
<path d="M67.5 18.9844C66.9406 18.9844 66.404 18.7621 66.0085 18.3666C65.6129 17.971 65.3906 17.4344 65.3906 16.875V10.5469C65.3906 9.98743 65.6129 9.45091 66.0085 9.05532C66.404 8.65974 66.9406 8.4375 67.5 8.4375C68.0594 8.4375 68.596 8.65974 68.9916 9.05532C69.3871 9.45091 69.6094 9.98743 69.6094 10.5469V16.875C69.6094 17.4344 69.3871 17.971 68.9916 18.3666C68.596 18.7621 68.0594 18.9844 67.5 18.9844Z" fill="#79D47F"/>
<path d="M74.1825 17.8144L82.62 5.15819C82.7723 4.92473 82.9694 4.72378 83.1999 4.56696C83.4304 4.41014 83.6896 4.30055 83.9627 4.24453C84.2358 4.18852 84.5173 4.18718 84.7908 4.24061C85.0644 4.29404 85.3247 4.40116 85.5567 4.5558C85.7886 4.71043 85.9876 4.9095 86.1421 5.14151C86.2967 5.37352 86.4037 5.63385 86.457 5.90747C86.5103 6.18108 86.5089 6.46255 86.4527 6.73561C86.3966 7.00866 86.2869 7.26788 86.13 7.49828L77.6925 20.1545C76.1727 22.4353 72.6224 20.1543 74.1825 17.8144Z" fill="#79D47F"/>
<path d="M90.7031 31.6406H80.1562C79.5968 31.6406 79.0603 31.4184 78.6647 31.0228C78.2691 30.6272 78.0469 30.0907 78.0469 29.5312C78.0469 28.9718 78.2691 28.4353 78.6647 28.0397C79.0603 27.6441 79.5968 27.4219 80.1562 27.4219H90.7031C91.2626 27.4219 91.7991 27.6441 92.1947 28.0397C92.5903 28.4353 92.8125 28.9718 92.8125 29.5312C92.8125 30.0907 92.5903 30.6272 92.1947 31.0228C91.7991 31.4184 91.2626 31.6406 90.7031 31.6406Z" fill="#79D47F"/>
<path d="M54.8437 31.6406H44.2969C43.7374 31.6406 43.2009 31.4184 42.8053 31.0228C42.4097 30.6272 42.1875 30.0907 42.1875 29.5312C42.1875 28.9718 42.4097 28.4353 42.8053 28.0397C43.2009 27.6441 43.7374 27.4219 44.2969 27.4219H54.8437C55.4032 27.4219 55.9397 27.6441 56.3353 28.0397C56.7309 28.4353 56.9531 28.9718 56.9531 29.5312C56.9531 30.0907 56.7309 30.6272 56.3353 31.0228C55.9397 31.4184 55.4032 31.6406 54.8437 31.6406Z" fill="#79D47F"/>
<path d="M67.5 54.8438C66.9406 54.8438 66.404 54.6215 66.0085 54.2259C65.6129 53.8303 65.3906 53.2938 65.3906 52.7344V42.1875C65.3906 41.6281 65.6129 41.0915 66.0085 40.6959C66.404 40.3004 66.9406 40.0781 67.5 40.0781C68.0594 40.0781 68.596 40.3004 68.9916 40.6959C69.3871 41.0915 69.6094 41.6281 69.6094 42.1875V52.7344C69.6094 53.2938 69.3871 53.8303 68.9916 54.2259C68.596 54.6215 68.0594 54.8438 67.5 54.8438Z" fill="#79D47F"/>
<path d="M85.541 44.0741L77.1035 39.8553C76.6076 39.6025 76.2318 39.164 76.0578 38.6352C75.8839 38.1065 75.926 37.5305 76.175 37.0327C76.4239 36.5348 76.8595 36.1556 77.3869 35.9776C77.9142 35.7995 78.4905 35.8371 78.9903 36.0822L87.4278 40.3009C87.6777 40.4235 87.901 40.5943 88.0846 40.8036C88.2682 41.0128 88.4086 41.2564 88.4976 41.5201C88.5867 41.7839 88.6226 42.0627 88.6034 42.3404C88.5842 42.6181 88.5102 42.8893 88.3857 43.1383C88.2612 43.3873 88.0886 43.6092 87.8779 43.7912C87.6673 43.9731 87.4227 44.1116 87.1582 44.1986C86.8938 44.2856 86.6147 44.3194 86.3371 44.298C86.0596 44.2766 85.789 44.2005 85.541 44.0741Z" fill="#79D47F"/>
<path d="M56.9513 21.0937C55.8349 21.0937 55.8267 20.6281 49.4551 16.5203C49.2216 16.368 49.0207 16.1709 48.8639 15.9404C48.707 15.71 48.5974 15.4507 48.5414 15.1776C48.4854 14.9045 48.4841 14.6231 48.5375 14.3495C48.5909 14.0759 48.6981 13.8156 48.8527 13.5837C49.0073 13.3517 49.2064 13.1527 49.4384 12.9982C49.6704 12.8436 49.9308 12.7366 50.2044 12.6833C50.478 12.63 50.7595 12.6315 51.0325 12.6876C51.3056 12.7437 51.5648 12.8534 51.7952 13.0103L58.1233 17.2291C59.8643 18.39 59.019 21.0937 56.9513 21.0937Z" fill="#79D47F"/>
<path d="M54.8416 52.7343C54.4648 52.7331 54.0951 52.631 53.771 52.4387C53.4469 52.2464 53.1801 51.9709 52.9984 51.6407C52.8166 51.3105 52.7265 50.9378 52.7374 50.5611C52.7483 50.1843 52.8598 49.8174 53.0603 49.4983L59.3884 39.4788C59.6871 39.0058 60.1615 38.6708 60.7073 38.5476C61.253 38.4243 61.8253 38.5229 62.2983 38.8217C62.7713 39.1204 63.1062 39.5948 63.2295 40.1405C63.3527 40.6863 63.2541 41.2586 62.9554 41.7316C56.6955 51.0218 56.893 52.7343 54.8416 52.7343Z" fill="#79D47F"/>
<path d="M79.2128 21.3165L83.4316 19.2071C83.6796 19.0807 83.9502 19.0046 84.2278 18.9832C84.5053 18.9618 84.7844 18.9956 85.0488 19.0826C85.3133 19.1696 85.5579 19.3081 85.7686 19.4901C85.9793 19.672 86.1518 19.8939 86.2763 20.1429C86.4009 20.3919 86.4748 20.6631 86.4941 20.9408C86.5133 21.2185 86.4773 21.4973 86.3883 21.7611C86.2992 22.0249 86.1588 22.2684 85.9752 22.4776C85.7916 22.6869 85.5684 22.8577 85.3184 22.9803L81.0997 25.0897C78.6006 26.3408 76.7311 22.5574 79.2128 21.3165Z" fill="#79D47F"/>
<path d="M60.9056 17.8914L55.1048 7.34457C54.9713 7.10184 54.8869 6.8352 54.8565 6.55987C54.8261 6.28453 54.8502 6.0059 54.9274 5.73988C55.0047 5.47386 55.1335 5.22566 55.3067 5.00945C55.4799 4.79324 55.6939 4.61326 55.9367 4.47977C56.1794 4.34629 56.446 4.26192 56.7214 4.23149C56.9967 4.20105 57.2753 4.22515 57.5414 4.3024C57.8074 4.37965 58.0556 4.50853 58.2718 4.6817C58.488 4.85487 58.668 5.06893 58.8015 5.31166L64.6022 15.8585C65.9567 18.3215 62.2434 20.3238 60.9056 17.8914Z" fill="#79D47F"/>
<path d="M54.8422 27.4219C53.9884 27.4219 53.8555 27.0994 49.6816 25.0892C49.4316 24.9666 49.2084 24.7957 49.0248 24.5865C48.8412 24.3772 48.7008 24.1337 48.6117 23.8699C48.5227 23.6062 48.4867 23.3274 48.5059 23.0497C48.5252 22.7719 48.5991 22.5008 48.7237 22.2518C48.8482 22.0028 49.0207 21.7809 49.2314 21.5989C49.4421 21.4169 49.6867 21.2785 49.9512 21.1915C50.2156 21.1045 50.4947 21.0707 50.7722 21.0921C51.0498 21.1134 51.3204 21.1896 51.5684 21.316L55.7872 23.4254C57.7676 24.416 57.0641 27.4219 54.8422 27.4219Z" fill="#79D47F"/>
<path d="M82.2669 54.8437C80.455 54.8437 80.6875 53.6933 72.181 43.5059C71.8313 43.069 71.6695 42.5111 71.7312 41.955C71.7928 41.3989 72.0729 40.89 72.5098 40.5403C72.9466 40.1907 73.5045 40.0289 74.0606 40.0906C74.6168 40.1522 75.1256 40.4323 75.4753 40.8691L83.9128 51.416C84.1599 51.7265 84.3146 52.1004 84.3591 52.4947C84.4036 52.8891 84.3361 53.288 84.1643 53.6458C83.9925 54.0035 83.7234 54.3057 83.3878 54.5175C83.0523 54.7294 82.6638 54.8425 82.2669 54.8437Z" fill="#79D47F"/>
<path d="M50.6268 42.1875C50.1765 42.1865 49.7382 42.0416 49.376 41.7739C49.0139 41.5061 48.7468 41.1296 48.6139 40.6993C48.4809 40.269 48.4891 39.8074 48.6371 39.3821C48.7851 38.9567 49.0653 38.5898 49.4366 38.335L55.2374 34.3799C55.6996 34.0647 56.2682 33.9461 56.8179 34.0501C57.3676 34.1541 57.8535 34.4722 58.1687 34.9344C58.4838 35.3966 58.6025 35.9652 58.4985 36.5149C58.3945 37.0646 58.0764 37.5505 57.6142 37.8656C51.7941 41.6897 51.7564 42.1875 50.6268 42.1875Z" fill="#79D47F"/>
<path d="M67.5 44.2969C75.6548 44.2969 82.2656 37.6861 82.2656 29.5312C82.2656 21.3764 75.6548 14.7656 67.5 14.7656C59.3452 14.7656 52.7344 21.3764 52.7344 29.5312C52.7344 37.6861 59.3452 44.2969 67.5 44.2969Z" fill="#B0ED98"/>
<path d="M78.7324 19.9621C77.2031 24.8517 74.5121 29.298 70.8894 32.9207C67.2668 36.5433 62.8204 39.2344 57.9308 40.7637C60.7537 43.1764 64.3827 44.4359 68.0934 44.2908C71.8041 44.1457 75.3236 42.6066 77.9495 39.9807C80.5753 37.3548 82.1144 33.8353 82.2595 30.1247C82.4047 26.414 81.1452 22.785 78.7324 19.9621Z" fill="#96EA8C"/>
<path d="M40.0781 92.8125H10.5469C8.30988 92.81 6.16523 91.9202 4.58344 90.3384C3.00164 88.7566 2.11189 86.612 2.10938 84.375V75.9375C2.10937 69.7836 4.55398 63.8818 8.90541 59.5304C13.2568 55.179 19.1586 52.7344 25.3125 52.7344C31.4664 52.7344 37.3682 55.179 41.7196 59.5304C46.071 63.8818 48.5156 69.7836 48.5156 75.9375V84.375C48.5131 86.612 47.6234 88.7566 46.0416 90.3384C44.4598 91.9202 42.3151 92.81 40.0781 92.8125Z" fill="#68676B"/>
<path d="M39.6934 57.7415C36.8912 65.6046 31.8745 72.4894 25.248 77.5659C18.6216 82.6424 10.6682 85.6939 2.34668 86.3525C2.79254 88.1921 3.84311 89.8288 5.33001 91.0001C6.81691 92.1715 8.65402 92.8097 10.5469 92.8125H40.0781C42.3151 92.81 44.4598 91.9202 46.0416 90.3384C47.6234 88.7566 48.5131 86.612 48.5156 84.375V75.9375C48.5158 72.435 47.7221 68.978 46.1941 65.8264C44.666 62.6748 42.4435 59.9106 39.6934 57.7415Z" fill="#58575B"/>
<path d="M0 118.125H12.6562V135H0V118.125Z" fill="#FFDFC5"/>
<path d="M37.9688 118.125H50.625V135H37.9688V118.125Z" fill="#FFDFC5"/>
<path d="M31.6406 97.9689V88.5938H18.9844V97.9689C17.8134 98.4242 14.7656 97.9689 14.7656 97.9689V113.906H35.8594V97.9689C35.8594 97.9689 32.7923 98.4168 31.6406 97.9689Z" fill="#FFD5C7"/>
<path d="M42.1875 135H8.4375V122.344H2.10937C1.54993 122.344 1.0134 122.121 0.61782 121.726C0.222236 121.33 -1.16874e-06 120.794 -1.16874e-06 120.234V106.911C-0.0100526 104.823 0.69743 102.794 2.00404 101.165C3.31064 99.5366 5.13709 98.406 7.17767 97.9628C15.9614 96.2594 18.9844 96.3232 18.9844 96.3232C18.8873 97.9641 18.8873 99.6092 18.9844 101.25C18.9844 103.271 22.4957 105.896 25.3125 107.346C28.1282 105.897 31.6406 103.271 31.6406 101.25C31.7372 99.6091 31.7372 97.9641 31.6406 96.3232C31.6406 96.3232 34.6728 96.2613 43.4473 97.9628C45.4879 98.406 47.3143 99.5366 48.621 101.165C49.9276 102.794 50.635 104.823 50.625 106.911V120.234C50.625 120.794 50.4028 121.33 50.0072 121.726C49.6116 122.121 49.0751 122.344 48.5156 122.344H42.1875V135Z" fill="#C09FDE"/>
<path d="M45.7207 98.7886C42.3679 106.448 37.2363 113.197 30.752 118.475C24.2677 123.753 16.6178 127.408 8.4375 129.136V135H42.1875V122.344H48.5156C49.0751 122.344 49.6116 122.122 50.0072 121.726C50.4028 121.33 50.625 120.794 50.625 120.234V106.911C50.6333 105.237 50.1799 103.593 49.3147 102.16C48.4495 100.727 47.2059 99.5607 45.7207 98.7886Z" fill="#BC85DD"/>
<path d="M96.5203 106.945C93.2056 103.63 92.7701 99.9269 92.7835 96.7396C92.7943 94.2387 95.9133 94.5733 97.0312 94.1583V86.4844H113.906V94.1593C115.007 94.5686 118.125 94.2434 118.125 96.7325C118.042 97.0363 119.211 105.982 110.317 109.666C108.011 110.654 105.46 110.923 102.998 110.438C100.537 109.953 98.2787 108.735 96.5203 106.945Z" fill="#FFD5C7"/>
<path d="M105.312 93.7794C98.7836 93.7794 93.0996 89.6822 91.1693 83.584L88.396 70.7998C88.396 70.7998 96.66 66.281 100.509 67.5126C102.46 68.137 104.175 68.4669 105.469 68.4669C106.763 68.4669 108.478 68.137 110.429 67.5126C114.182 66.3113 122.215 70.8225 122.215 70.8225L119.456 83.584C117.526 89.6822 111.842 93.7794 105.312 93.7794Z" fill="#FFDFC5"/>
<path d="M121.338 75.012C119.603 74.9487 113.955 70.8138 111.714 71.5315C106.939 73.0608 104.002 73.0608 99.2218 71.5315C96.9079 70.7909 91.0826 74.9856 89.2891 75.0083C89.2859 74.3246 86.3939 66.6615 92.585 59.0504C99.3589 50.7202 111.324 50.6129 118.048 58.8608C124.196 66.4002 121.338 74.452 121.338 75.012Z" fill="#68676B"/>
<path d="M12.6562 82.2656V71.7188H37.9688C37.4113 79.3942 39.6918 85.6657 34.4838 91.1139C26.9797 98.9648 12.6562 94.1862 12.6562 82.2656Z" fill="#FFDFC5"/>
<path d="M75.9375 122.344H90.7031V135H75.9375V122.344Z" fill="#FFDFC5"/>
<path d="M120.234 122.344H135V135H120.234V122.344Z" fill="#FFDFC5"/>
<path d="M124.453 135H86.4844V126.563H75.9375V107.024C75.9428 104.588 76.7895 102.228 78.3344 100.343C79.8792 98.4587 82.0275 97.1655 84.4159 96.6824L94.4792 94.6698C94.894 94.587 95.3241 94.6307 95.7138 94.7953C96.1035 94.9598 96.4348 95.2376 96.6647 95.5927C97.5699 96.9767 96.0359 100.497 99.5037 103.964C104.783 109.242 113.906 105.499 113.906 97.9981C113.906 94.9219 115.605 94.4992 116.429 94.664L126.522 96.6824C128.91 97.1655 131.058 98.4587 132.603 100.343C134.148 102.228 134.995 104.588 135 107.024V126.563H124.453V135Z" fill="#C09FDE"/>
<path d="M126.522 96.6824C126.522 96.6824 122.344 126.563 91.9964 135H124.453V126.563H135V107.024C134.995 104.588 134.148 102.228 132.603 100.343C131.058 98.4587 128.91 97.1656 126.522 96.6824Z" fill="#BC85DD"/>
<path d="M87.5391 113.906C90.4515 113.906 92.8125 111.545 92.8125 108.633C92.8125 105.72 90.4515 103.359 87.5391 103.359C84.6266 103.359 82.2656 105.72 82.2656 108.633C82.2656 111.545 84.6266 113.906 87.5391 113.906Z" fill="#D2C1E8"/>
<path d="M98.0859 118.125C99.8334 118.125 101.25 116.708 101.25 114.961C101.25 113.213 99.8334 111.797 98.0859 111.797C96.3385 111.797 94.9219 113.213 94.9219 114.961C94.9219 116.708 96.3385 118.125 98.0859 118.125Z" fill="#D2C1E8"/>
<path d="M9.49219 113.906C12.4046 113.906 14.7656 111.545 14.7656 108.633C14.7656 105.72 12.4046 103.359 9.49219 103.359C6.57975 103.359 4.21875 105.72 4.21875 108.633C4.21875 111.545 6.57975 113.906 9.49219 113.906Z" fill="#D2C1E8"/>
<path d="M20.0391 118.125C21.7865 118.125 23.2031 116.708 23.2031 114.961C23.2031 113.213 21.7865 111.797 20.0391 111.797C18.2916 111.797 16.875 113.213 16.875 114.961C16.875 116.708 18.2916 118.125 20.0391 118.125Z" fill="#D2C1E8"/>
<path d="M56.9531 82.2656C58.1181 82.2656 59.0625 81.3212 59.0625 80.1562C59.0625 78.9913 58.1181 78.0469 56.9531 78.0469C55.7881 78.0469 54.8438 78.9913 54.8438 80.1562C54.8438 81.3212 55.7881 82.2656 56.9531 82.2656Z" fill="#F27C6D"/>
<path d="M67.5 4.21875C68.665 4.21875 69.6094 3.27435 69.6094 2.10938C69.6094 0.944399 68.665 0 67.5 0C66.335 0 65.3906 0.944399 65.3906 2.10938C65.3906 3.27435 66.335 4.21875 67.5 4.21875Z" fill="#79D47F"/>
<path d="M67.5 63.2812C68.665 63.2812 69.6094 62.3369 69.6094 61.1719C69.6094 60.0069 68.665 59.0625 67.5 59.0625C66.335 59.0625 65.3906 60.0069 65.3906 61.1719C65.3906 62.3369 66.335 63.2812 67.5 63.2812Z" fill="#79D47F"/>
<path d="M44.2969 46.4062C45.4619 46.4062 46.4062 45.4619 46.4062 44.2969C46.4062 43.1319 45.4619 42.1875 44.2969 42.1875C43.1319 42.1875 42.1875 43.1319 42.1875 44.2969C42.1875 45.4619 43.1319 46.4062 44.2969 46.4062Z" fill="#79D47F"/>
<path d="M90.7031 18.9844C91.8681 18.9844 92.8125 18.04 92.8125 16.875C92.8125 15.71 91.8681 14.7656 90.7031 14.7656C89.5381 14.7656 88.5938 15.71 88.5938 16.875C88.5938 18.04 89.5381 18.9844 90.7031 18.9844Z" fill="#79D47F"/>
<path d="M65.3906 35.8594C66.5556 35.8594 67.5 34.915 67.5 33.75C67.5 32.585 66.5556 31.6406 65.3906 31.6406C64.2256 31.6406 63.2812 32.585 63.2812 33.75C63.2812 34.915 64.2256 35.8594 65.3906 35.8594Z" fill="#79D47F"/>
<path d="M65.3906 27.4219C66.5556 27.4219 67.5 26.4775 67.5 25.3125C67.5 24.1475 66.5556 23.2031 65.3906 23.2031C64.2256 23.2031 63.2812 24.1475 63.2812 25.3125C63.2812 26.4775 64.2256 27.4219 65.3906 27.4219Z" fill="#79D47F"/>
<path d="M71.7188 33.75C72.8837 33.75 73.8281 32.8056 73.8281 31.6406C73.8281 30.4756 72.8837 29.5312 71.7188 29.5312C70.5538 29.5312 69.6094 30.4756 69.6094 31.6406C69.6094 32.8056 70.5538 33.75 71.7188 33.75Z" fill="#79D47F"/>
<path d="M44.2969 12.6562C45.4619 12.6562 46.4062 11.7119 46.4062 10.5469C46.4062 9.3819 45.4619 8.4375 44.2969 8.4375C43.1319 8.4375 42.1875 9.3819 42.1875 10.5469C42.1875 11.7119 43.1319 12.6562 44.2969 12.6562Z" fill="#79D47F"/>
<path d="M84.3341 79.7433C84.1622 78.8777 84.3697 79.2969 77.4291 72.3365C77.0335 71.9409 76.4969 71.7187 75.9375 71.7187C75.378 71.7187 74.8415 71.9409 74.4459 72.3365C74.0503 72.7321 73.8281 73.2687 73.8281 73.8281C73.8281 74.3876 74.0503 74.9241 74.4459 75.3197L77.1731 78.0469H65.3906C64.8312 78.0469 64.2947 78.2691 63.8991 78.6647C63.5035 79.0603 63.2812 79.5968 63.2812 80.1562C63.2812 80.7157 63.5035 81.2522 63.8991 81.6478C64.2947 82.0434 64.8312 82.2656 65.3906 82.2656H77.1731L74.4459 84.9928C74.0503 85.3884 73.8281 85.9249 73.8281 86.4844C73.8281 87.0438 74.0503 87.5804 74.4459 87.976C74.8415 88.3716 75.378 88.5938 75.9375 88.5938C76.4969 88.5938 77.0335 88.3716 77.4291 87.976C84.2073 81.1962 84.6276 81.2186 84.3341 79.7433Z" fill="#F27C6D"/>
<path d="M18.9844 67.5C21.3143 67.5 23.2031 65.6112 23.2031 63.2812C23.2031 60.9513 21.3143 59.0625 18.9844 59.0625C16.6544 59.0625 14.7656 60.9513 14.7656 63.2812C14.7656 65.6112 16.6544 67.5 18.9844 67.5Z" fill="#8A8A8C"/>
<path d="M27.4219 67.5C28.5869 67.5 29.5312 66.5556 29.5312 65.3906C29.5312 64.2256 28.5869 63.2812 27.4219 63.2812C26.2569 63.2812 25.3125 64.2256 25.3125 65.3906C25.3125 66.5556 26.2569 67.5 27.4219 67.5Z" fill="#8A8A8C"/>
<path d="M118.048 58.86C116.351 56.7543 114.167 55.0934 111.684 54.0208C111.334 57.6413 110.174 61.1367 108.29 64.248C106.405 67.3593 103.845 70.0068 100.799 71.9943C104.699 73.0374 107.488 72.8834 111.715 71.5305C113.956 70.8138 119.603 74.9487 121.339 75.0109C121.338 74.452 124.196 66.4002 118.048 58.86Z" fill="#58575B"/>
<path d="M97.0312 67.5C99.3612 67.5 101.25 65.6112 101.25 63.2812C101.25 60.9513 99.3612 59.0625 97.0312 59.0625C94.7013 59.0625 92.8125 60.9513 92.8125 63.2812C92.8125 65.6112 94.7013 67.5 97.0312 67.5Z" fill="#8A8A8C"/>
<path d="M105.469 67.5C106.634 67.5 107.578 66.5556 107.578 65.3906C107.578 64.2256 106.634 63.2812 105.469 63.2812C104.304 63.2812 103.359 64.2256 103.359 65.3906C103.359 66.5556 104.304 67.5 105.469 67.5Z" fill="#8A8A8C"/>
</g>
<defs>
<clipPath id="clip0">
<rect width="135" height="135" fill="white"/>
</clipPath>
</defs>
</svg>
