<svg width="33" height="33" viewBox="0 0 33 33" fill="none" xmlns="http://www.w3.org/2000/svg">
<path d="M29.7773 6.44531H25.3945V3.22266C25.3945 2.15647 24.5271 1.28906 23.4609 1.28906H9.53906C8.47288 1.28906 7.60547 2.15647 7.60547 3.22266V6.44531H3.22266C1.44568 6.44531 0 7.891 0 9.66797V28.4883C0 30.2653 1.44568 31.7109 3.22266 31.7109H29.7773C31.5543 31.7109 33 30.2653 33 28.4883V9.66797C33 7.891 31.5543 6.44531 29.7773 6.44531ZM11.4727 6.44531V5.15625H21.5273V6.44531H11.4727ZM29.7773 30.4219H3.22266C2.15647 30.4219 1.28906 29.5545 1.28906 28.4883V15.3223C1.82808 15.7279 2.49775 15.9686 3.22266 15.9686H5.15767V16.3711C5.15767 17.5084 6.08289 18.4336 7.22017 18.4336C8.35744 18.4336 9.28267 17.5084 9.28267 16.3711V15.9686H23.7174V16.3711C23.7174 17.5084 24.6426 18.4336 25.7799 18.4336C26.9172 18.4336 27.8424 17.5084 27.8424 16.3711V15.9686H29.7773C30.5022 15.9686 31.1719 15.7279 31.7109 15.3223V28.4883C31.7109 29.5545 30.8435 30.4219 29.7773 30.4219ZM6.44673 16.3711V14.2771C6.44673 13.8506 6.79368 13.5036 7.22017 13.5036C7.64665 13.5036 7.99361 13.8506 7.99361 14.2771V16.3711C7.99361 16.7976 7.64665 17.1445 7.22017 17.1445C6.79368 17.1445 6.44673 16.7976 6.44673 16.3711ZM25.0065 16.3711V14.2771C25.0065 13.8506 25.3534 13.5036 25.7799 13.5036C26.2064 13.5036 26.5533 13.8506 26.5533 14.2771V16.3711C26.5533 16.7976 26.2064 17.1445 25.7799 17.1445C25.3534 17.1445 25.0065 16.7976 25.0065 16.3711ZM31.7109 12.7459C31.7109 13.8121 30.8435 14.6795 29.7773 14.6795H27.8424V14.277C27.8424 13.1397 26.9172 12.2145 25.7799 12.2145C24.6426 12.2145 23.7174 13.1397 23.7174 14.277V14.6795H9.28267V14.277C9.28267 13.1397 8.35744 12.2145 7.22017 12.2145C6.08289 12.2145 5.15767 13.1397 5.15767 14.277V14.6795H3.22266C2.15647 14.6795 1.28906 13.8121 1.28906 12.7459V9.66797C1.28906 8.60179 2.15647 7.73438 3.22266 7.73438H29.7773C30.8435 7.73438 31.7109 8.60179 31.7109 9.66797V12.7459Z" fill="white"/>
<path d="M17.7891 26.4179V24.4843H19.7227C20.0786 24.4843 20.3672 24.1958 20.3672 23.8398V22.5507C20.3672 22.1947 20.0786 21.9062 19.7227 21.9062H17.7891V19.9726C17.7891 19.6166 17.5005 19.3281 17.1445 19.3281H15.8555C15.4995 19.3281 15.2109 19.6166 15.2109 19.9726V21.9062H13.2773C12.9214 21.9062 12.6328 22.1947 12.6328 22.5507V23.8398C12.6328 24.1958 12.9214 24.4843 13.2773 24.4843H15.2109V26.4179C15.2109 26.7739 15.4995 27.0624 15.8555 27.0624H17.1445C17.5005 27.0624 17.7891 26.7739 17.7891 26.4179Z" fill="white"/>
</svg>
