<svg width="293" height="293" viewBox="0 0 293 293" fill="none" xmlns="http://www.w3.org/2000/svg">
<path d="M205.902 245.674L146.5 228.506L87.0983 245.674C86.5838 246.704 86.4121 247.734 86.4121 248.936V284.416H206.588V248.936C206.588 247.734 206.416 246.704 205.902 245.674Z" fill="#646D73"/>
<path d="M206.588 284.416V248.936C206.588 247.734 206.416 246.704 205.902 245.674L146.5 228.506V284.416H206.588Z" fill="#474F54"/>
<path d="M284.416 17.168H240.555C240.63 14.2683 240.924 11.5369 240.924 8.58398C240.924 3.77638 237.147 0 232.34 0H60.6602C55.8526 0 52.0762 3.77638 52.0762 8.58398C52.0762 11.5369 52.3697 14.2683 52.4441 17.168H8.58398C3.83933 17.168 0 21.0073 0 25.752V47.4969C0 95.4264 38.3944 134.362 85.7099 136.868C95.5672 150.44 107.266 160.512 120.576 166.186C118.516 207.904 94.6527 236.918 88.9879 242.927C88.1289 243.613 87.4422 244.644 87.0988 245.674H205.902C205.558 244.644 204.872 243.613 204.013 242.927C198.176 236.918 174.484 208.076 172.424 166.186C185.737 160.511 197.506 150.437 207.371 136.86C254.646 134.312 293 95.3995 293 47.4969V25.752C293 21.0073 289.161 17.168 284.416 17.168ZM17.168 47.4969V34.3359H53.1806C55.4085 62.7077 61.5609 92.7562 74.4918 118.292C42.0787 110.993 17.168 82.0875 17.168 47.4969ZM275.832 47.4969C275.832 82.0698 250.944 110.961 218.555 118.277C231.383 92.7419 237.57 62.9841 239.819 34.3359H275.832V47.4969Z" fill="#FED843"/>
<path d="M284.416 17.168H240.555C240.63 14.2683 240.924 11.5369 240.924 8.58398C240.924 3.77638 237.147 0 232.34 0H146.5V245.674H205.902C205.558 244.644 204.872 243.613 204.013 242.927C198.176 236.918 174.484 208.076 172.424 166.186C185.737 160.511 197.506 150.437 207.371 136.86C254.646 134.312 293 95.3995 293 47.4969V25.752C293 21.0073 289.161 17.168 284.416 17.168ZM275.832 47.4969C275.832 82.0698 250.944 110.961 218.555 118.277C231.384 92.7419 237.571 62.9841 239.819 34.3359H275.832V47.4969Z" fill="#FABE2C"/>
<path d="M160.198 109.186L146.5 102.069L132.802 109.186C129.935 110.661 126.431 110.418 123.799 108.515C121.167 106.604 119.843 103.368 120.379 100.166L122.894 84.9174L111.913 74.0786C109.522 71.7484 108.792 68.2936 109.767 65.3104C110.773 62.2253 113.438 59.962 116.657 59.4761L131.914 57.1791L138.821 43.3726C141.739 37.5549 151.261 37.5549 154.179 43.3726L161.086 57.1791L176.342 59.4761C179.561 59.9626 182.227 62.2259 183.233 65.3104C184.239 68.4035 183.417 71.7987 181.087 74.0786L170.106 84.9174L172.621 100.166C173.158 103.368 171.833 106.604 169.201 108.515C166.586 110.41 163.088 110.69 160.198 109.186Z" fill="#FABE2C"/>
<path d="M160.198 109.186C163.089 110.69 166.587 110.41 169.201 108.515C171.833 106.604 173.157 103.368 172.621 100.166L170.106 84.9174L181.087 74.0786C183.417 71.7987 184.239 68.4035 183.233 65.3104C182.227 62.2253 179.562 59.962 176.343 59.4761L161.086 57.1791L154.179 43.3726C152.72 40.4638 149.61 39.0091 146.5 39.0091V102.069L160.198 109.186Z" fill="#FF9100"/>
<path d="M215.172 293H77.8281C73.0835 293 69.2441 289.161 69.2441 284.416C69.2441 279.671 73.0835 275.832 77.8281 275.832H215.172C219.917 275.832 223.756 279.671 223.756 284.416C223.756 289.161 219.917 293 215.172 293Z" fill="#474F54"/>
<path d="M215.172 275.832H146.5V293H215.172C219.917 293 223.756 289.161 223.756 284.416C223.756 279.671 219.917 275.832 215.172 275.832Z" fill="#32393F"/>
</svg>
