<svg width="111" height="137" viewBox="0 0 111 137" fill="none" xmlns="http://www.w3.org/2000/svg">
<g opacity="0.98">
<path d="M51.7754 99.161C53.5465 96.3072 55.5024 93.5723 57.6307 90.9741V83.8232C51.1403 85.365 50.2974 85.8569 48.2356 85.8569C46.0339 85.8454 43.8936 85.1297 42.1278 83.8146C40.3619 82.4995 39.0631 80.654 38.4212 78.5479C38.2767 78.0664 38.3067 77.5493 38.5061 77.0878C38.7055 76.6262 39.0615 76.2499 39.5112 76.0252L44.2957 73.6346C43.5653 71.8769 42.8638 70.7253 38.1761 71.401C37.6702 71.4737 37.1549 71.3624 36.7242 71.0873C36.2934 70.8123 35.9756 70.3917 35.8287 69.9021L34.4792 65.4095C28.7789 61.6587 27.5436 61.7302 27.2541 60.1299C26.9573 58.4907 28.0147 58.364 34.1556 50.1V34.1414H91.7743C91.3542 91.1026 92.7677 90.3296 90.6769 91.4916C89.8798 91.9344 70.958 102.338 53.5942 102.428C53.2121 102.43 52.8365 102.33 52.5067 102.137C52.1768 101.944 51.9048 101.666 51.7189 101.332C51.5331 100.998 51.4403 100.621 51.4503 100.239C51.4602 99.857 51.5725 99.4847 51.7754 99.161Z" fill="#FFDFC5"/>
<path d="M57.6382 84.094V90.9743C55.5098 93.5725 53.5539 96.3072 51.7829 99.161C51.5802 99.4848 51.4681 99.857 51.4583 100.239C51.4485 100.621 51.5414 100.998 51.7272 101.332C51.9131 101.666 52.1852 101.944 52.5151 102.136C52.8449 102.329 53.2205 102.43 53.6025 102.428C70.9662 102.338 89.8881 91.9344 90.6852 91.4908C91.0177 91.306 91.2948 91.0357 91.4877 90.7079C91.6807 90.38 91.7825 90.0066 91.7826 89.6262V43.8918C89.3952 52.6902 85.0978 60.8542 79.1962 67.8028C73.2947 74.7514 65.934 80.3137 57.6382 84.094Z" fill="#FFD5C7"/>
<path d="M106.67 136.575H40.6113C39.9623 121.354 46.4142 107.735 51.784 99.1615C57.6382 100.296 88.2081 93.8942 92.0493 88.3458C102.453 100.296 106.958 116.018 106.721 128.904L106.67 136.575Z" fill="#96E0D7"/>
<path d="M99.1703 98.6576C94.0326 109.381 85.5879 118.171 75.0793 123.735C64.5708 129.298 52.5536 131.341 40.797 129.562C40.5756 131.893 40.5132 134.236 40.6102 136.575H106.67L106.721 128.904C106.894 119.476 104.526 108.533 99.1703 98.6576Z" fill="#97D0DD"/>
<path d="M89.6481 80.7081C89.392 80.7079 89.138 80.6618 88.8982 80.5718C70.4423 73.6394 70.4424 55.0018 70.4424 43.8665C70.4424 43.103 70.2738 42.0408 69.4695 41.3161C68.7618 40.678 67.6697 40.3998 66.3952 40.5323C66.3218 40.54 66.2481 40.5439 66.1743 40.5438H46.2649C39.993 40.4384 34.867 38.2599 31.0293 34.0681C22.4646 24.7131 23.5039 8.67719 23.5524 7.99963C23.5818 7.52416 23.7679 7.07183 24.0816 6.71333C24.3953 6.35484 24.819 6.11039 25.2863 6.01819C25.7446 5.92854 26.2197 5.99479 26.636 6.20637C27.0523 6.41795 27.3859 6.76271 27.5836 7.18577C27.7306 7.44425 29.3234 10.0427 33.8886 10.0427C38.926 10.0427 46.2876 7.87853 54.0818 5.58791C62.6665 3.06469 71.543 0.453979 79.2767 0.0503814C88.0833 -0.408434 94.0879 2.26817 97.1473 8.0127C101.941 8.65291 105.873 11.8345 108.313 17.0906C111.487 23.9323 111.862 33.5431 109.366 44.153C106.566 56.063 100.327 68.4211 91.3275 79.8913C91.1278 80.1458 90.8729 80.3516 90.5819 80.4931C90.2909 80.6346 89.9716 80.7081 89.6481 80.7081Z" fill="#68676B"/>
<path d="M108.313 17.0903C106.816 13.8653 104.755 11.4255 102.28 9.87036C101.514 19.7454 98.2618 29.2661 92.826 37.5459C87.3903 45.8257 79.9477 52.5953 71.1913 57.2244C72.6219 66.4288 76.7846 76.0215 88.8982 80.5718C89.3229 80.7312 89.7874 80.7512 90.2242 80.6288C90.661 80.5064 91.0475 80.248 91.3275 79.891C100.327 68.4206 106.565 56.0627 109.366 44.1527C111.862 33.5429 111.488 23.932 108.313 17.0903Z" fill="#58575B"/>
<path d="M74.7104 63.6356H66.1743V46.5634H70.6408C72.4502 37.294 85.3805 38.3042 85.3805 50.8314C85.3805 58.0346 81.7524 63.6356 74.7104 63.6356Z" fill="#FFDFC5"/>
<path d="M75.7774 21.3373C79.9025 21.3373 83.2465 17.9933 83.2465 13.8682C83.2465 9.74314 79.9025 6.39911 75.7774 6.39911C71.6523 6.39911 68.3083 9.74314 68.3083 13.8682C68.3083 17.9933 71.6523 21.3373 75.7774 21.3373Z" fill="#8A8A8C"/>
<path d="M88.5816 25.6054C90.3495 25.6054 91.7826 24.1722 91.7826 22.4043C91.7826 20.6364 90.3495 19.2033 88.5816 19.2033C86.8137 19.2033 85.3805 20.6364 85.3805 22.4043C85.3805 24.1722 86.8137 25.6054 88.5816 25.6054Z" fill="#8A8A8C"/>
<path d="M93.9166 136.575H64.0403V117.595C64.0403 109.398 70.549 102.557 78.7469 102.432C80.7273 102.404 82.6936 102.769 84.5316 103.506C86.3697 104.244 88.043 105.339 89.4543 106.729C90.8656 108.119 91.9868 109.775 92.7528 111.601C93.5188 113.428 93.9144 115.388 93.9166 117.369V136.575Z" fill="#AFEFDE"/>
<path d="M81.1109 41.4812C81.1109 41.5244 81.1125 41.5673 81.1125 41.6105C81.1132 46.1958 79.8294 50.6896 77.4065 54.5825C74.9836 58.4753 71.5186 61.6115 67.4043 63.6356H74.7104C81.7527 63.6356 85.3805 58.0338 85.3805 50.8314C85.3805 46.0795 83.5194 42.9862 81.1109 41.4812Z" fill="#FFD5C7"/>
<path d="M76.8444 119.503C79.2016 119.503 81.1125 117.592 81.1125 115.234C81.1125 112.877 79.2016 110.966 76.8444 110.966C74.4872 110.966 72.5764 112.877 72.5764 115.234C72.5764 117.592 74.4872 119.503 76.8444 119.503Z" fill="#D5F7ED"/>
<path d="M83.2465 123.771C84.4251 123.771 85.3805 122.815 85.3805 121.637C85.3805 120.458 84.4251 119.503 83.2465 119.503C82.0679 119.503 81.1125 120.458 81.1125 121.637C81.1125 122.815 82.0679 123.771 83.2465 123.771Z" fill="#D5F7ED"/>
<path d="M27.7538 72.5539H23.4889C22.9229 72.5539 22.3801 72.3291 21.9799 71.9289C21.5797 71.5287 21.3549 70.9859 21.3549 70.4199C21.3549 69.8539 21.5797 69.3111 21.9799 68.9109C22.3801 68.5107 22.9229 68.2859 23.4889 68.2859H27.7538C28.3198 68.2859 28.8625 68.5107 29.2628 68.9109C29.663 69.3111 29.8878 69.8539 29.8878 70.4199C29.8878 70.9859 29.663 71.5287 29.2628 71.9289C28.8625 72.3291 28.3198 72.5539 27.7538 72.5539Z" fill="#F27C6D"/>
<path d="M36.2899 91.7602C35.7239 91.7602 35.1811 91.5353 34.7809 91.1351C34.3807 90.7349 34.1559 90.1921 34.1559 89.6261V85.3581C34.1559 84.7921 34.3807 84.2493 34.7809 83.8491C35.1811 83.4489 35.7239 83.2241 36.2899 83.2241C36.8559 83.2241 37.3987 83.4489 37.7989 83.8491C38.1991 84.2493 38.4239 84.7921 38.4239 85.3581V89.6261C38.4239 90.1921 38.1991 90.7349 37.7989 91.1351C37.3987 91.5353 36.8559 91.7602 36.2899 91.7602Z" fill="#F27C6D"/>
<path d="M25.6197 85.3582C25.1977 85.3582 24.785 85.233 24.4341 84.9985C24.0831 84.764 23.8096 84.4307 23.6481 84.0408C23.4865 83.6508 23.4443 83.2218 23.5266 82.8078C23.609 82.3938 23.8122 82.0136 24.1107 81.7151L28.3788 77.447C28.779 77.0468 29.3218 76.8219 29.8878 76.8219C30.4538 76.8219 30.9967 77.0467 31.3969 77.4469C31.7972 77.8471 32.0221 78.39 32.0221 78.956C32.0221 79.522 31.7973 80.0648 31.3971 80.4651L27.129 84.7332C26.931 84.9316 26.6957 85.089 26.4367 85.1962C26.1777 85.3035 25.9001 85.3585 25.6197 85.3582Z" fill="#F27C6D"/>
<path d="M6.4167 121.88V136.575H26.7414C26.4427 132.915 26.0847 128.244 25.6771 122.259C33.5882 111.157 31.7724 100.223 32.0258 98.1623C32.0258 96.4643 31.3513 94.8359 30.1507 93.6353C28.9501 92.4347 27.3217 91.7602 25.6237 91.7602C23.9258 91.7602 22.2974 92.4347 21.0968 93.6353C19.8962 94.8359 19.2217 96.4643 19.2217 98.1623V102.978C19.2217 103.355 19.0877 103.719 18.8436 104.006C18.5995 104.293 18.2613 104.484 17.8894 104.544C17.5176 104.604 17.1364 104.531 16.8141 104.335C16.4918 104.14 16.2494 103.837 16.1303 103.48L12.9057 93.8089L15.47 83.5506C17.268 76.3621 7.9364 72.383 6.55275 76.0727C-0.049133 94.0313 -0.190246 93.2495 0.0693055 94.3744L6.4167 121.88Z" fill="#FFDFC5"/>
<path d="M32.025 98.1623C32.025 98.1145 32.0223 98.0676 32.0213 98.0201C26.9691 109.177 17.7926 117.945 6.41669 122.483V136.575H26.7414C26.4427 132.915 26.0847 128.244 25.6771 122.259C33.5882 111.157 31.7724 100.223 32.025 98.1623Z" fill="#FFD5C7"/>
</g>
</svg>
